<svg xmlns="http://www.w3.org/2000/svg" width="588" height="604" version="1.0" viewBox="0 0 441 453"><path d="M98.4 12.4c-2.2 2.3-5.2 6-6.9 8.2-4.3 5.8-5.7 6.7-7.2 4.7-.7-.9-1.3-2.3-1.3-3.1 0-1.9-5.2-12.2-6.1-12.2-1.5 0-1.6 4-.2 6 1.4 1.9 3.2 11 3.8 19.1.1 2 .5 4.1.8 4.6s.2 2.3-.2 3.9l-.9 2.9-1.6-4c-3.9-9.1-5.9-12.9-9.9-18.8-5.1-7.6-7-9.2-12.4-10.7-4.6-1.4-9.6-.5-5.8 1 1.7.6 1.4.9-1.8 1.5-2.1.4-4.1 1.4-4.4 2.2-.4 1-.9 1.1-1.9.2-1-.8-1.8-.8-2.7-.1-.7.6-2.2.9-3.4.6-1.8-.5-2.1 0-2.7 4.3-.5 3.8-.3 5.3 1.2 7.2 1 1.4 2.5 2.7 3.3 2.9 1.1.4 1.2.2.2-.9-2.7-2.8-.2-8.9 3.6-8.9.6 0 3.4-1.1 6.1-2.5s6.2-2.5 7.7-2.5c2.6.1 2.7.1.9 1.5-3.1 2.4-1.3 4.6 3.5 4.3 2.7-.2 4.3.2 4.6.9.3.9-.6 1.3-2.6 1.3-1.7 0-3.1.2-3.1.6 0 2.1 5 8.4 8.2 10.3 4.2 2.4 4.9 4.1 1.8 4.1-2.7 0-8-3.9-8-5.8 0-2.6-5.1-8.4-8.7-9.9-2.1-.8-4.7-1.1-6.4-.8-2.9.7-3 .8-2 7.5.1.2.6-.1 1.3-.8S47.1 30 48 30c2.2 0 11 8.3 11 10.4 0 .9.4 1.6.8 1.6 2.3 0 9.4 19.2 7.7 20.8-.3.3-3.7-1.1-7.6-3.2-6.4-3.4-7.7-3.7-15.3-3.8-4.5 0-9.1.4-10.2 1-1 .5-3.6 1.8-5.7 2.8-2.2 1.1-5 3.2-6.3 4.9-1.3 1.6-3.3 3.9-4.3 5-2.4 2.6-4.2 6.1-3.4 6.8.7.8 7-3.8 10-7.3 1.8-1.9 2.4-2.2 3.1-1.2.8 1.1 1.2 1.1 2.4-.1.7-.8 2.5-1.8 3.8-2.2 2-.6 1.7-.1-1.4 2.4-2.1 1.7-5 3.1-6.3 3.1-1.6 0-2.7.7-3 1.9C23 74 22 75 20.9 75.3c-1 .3-1.9.9-1.9 1.5 0 1.4 6.2 2.4 7.4 1.2.5-.5 1.8-1 2.7-1 1 0 2.1-.9 2.4-2 .5-1.6 1.5-2 5.6-2 3.6 0 4.9.4 4.9 1.4 0 2.2 1.5 2.7 4.6 1.6 1.9-.8 3.5-.8 4.9-.1 1.1.5 2.9 1.1 3.9 1.3 1.1.2 2.1.8 2.3 1.4.2.7-2.3 1.4-6.9 1.8-10.4.9-19.4 4.2-22.3 8-3.1 4.1-5 8.9-3.6 9.4.6.2 1.1 1 1.1 1.8 0 2.6 1.9 1.5 3.6-2.1 1.3-2.7 2.1-3.4 3.5-3 1.1.4 1.9.2 1.9-.5s.8-.9 2.1-.5 2.7.1 3.9-1c1.4-1.3 2.9-1.6 5-1.1 1.8.3 4 0 5.2-.7 1.6-.9 2.2-.9 2.5 0 .3.7.9 1.3 1.4 1.3.6 0 2.1 1.2 3.4 2.7 1.8 2.2 2.6 2.5 3.6 1.6C63.4 95 67 96.2 67 98c0 1.1-5.6 5.1-7.4 5.4-3.8.5-19.7 15-22.4 20.3-1.9 3.9-3.5 13.2-2.5 14.5.6.7 1.3 3 1.7 5 .4 2.1 1.1 3.8 1.6 3.8.6 0 1-.5 1-1 0-.6 1-1.4 2.3-1.9 2-.8 2.6-2.3 4.1-9.8 2.4-11.8 2.4-11.9 3.8-10.5.9.9.9 2-.1 4.7-1 2.8-1 3.9-.1 5 1.6 1.9 3 1 3-2.1 0-1.4.6-2.4 1.4-2.4 2 0 6.6-4.4 6.6-6.2 0-1.9 5.2-6.8 7.3-6.8 1.9 0 2.4 3.9.6 5.7-1.3 1.3-.6 24.9 1 32.3 1.5 6.7 6 17 8.1 18.7 1.4 1.2 6 1.8 6 .9 0-.3-1-2.1-2.1-4.1-2.1-3.6-1.9-5.9.3-3.7.7.7 1.7 1.2 2.3 1.2 1.4 0 1.3-6.9-.2-9.5s-2.7-12.7-1.8-15.4c.3-1.2 1.5-2.1 2.6-2.1 2.4 0 2.4-.1-.2-4.9-1.5-2.9-1.8-4.7-1.2-7 1-3.9 2.7-4.4 3.1-1.1.2 1.4 1.4 3.5 2.7 4.7 1.4 1.3 2.6 3.9 2.9 6.5.4 2.4 1.1 7 1.6 10.3 4.5 28.7 6 86.2 2.9 114-.6 4.9-1.4 12.6-1.9 17-1.5 14.4-7.8 46.4-9.9 50.3-1.3 2.4-2.6 2.8-3.6 1.2-.3-.6-1.1-1-1.7-1s-.3.9.7 2c1.3 1.5 1.6 2.8 1 5.7-.7 4-2.8 7.7-3.8 6.7-.3-.4-1.3.1-2.2 1-2 2-3.1 2-3.9.1-.5-1.5-2.6-2.1-2.6-.8 0 .5.9 1.9 1.9 3.2l1.8 2.3 2-2.2c1.2-1.2 2.3-1.7 2.7-1.1.4.5.2 1.2-.4 1.6-1.5 1-1.2 4.5.5 4.5C79 353 89 328.6 89 322.5c0-1.4.4-3.4.9-4.4.6-1 1.2-3.9 1.6-6.6.3-2.6.7-5.1 1-5.5.6-1 4.2-22.5 4.9-29.5 2.1-20.7 2.6-30.1 2.7-49.8.1-9.2.4-16.7.8-16.7.3 0 1.4.7 2.4 1.5 1.1.7 2.5 1.1 3.3.8s1.4 0 1.4.5c0 .6-1 1.2-2.2 1.4-2.2.3-3.3 3.5-1.8 5.3.5.6.5 1.7.1 2.4-1.2 1.8 1.1 6.1 3.2 6.1 1.3 0 1.7.6 1.4 2.7-.2 1.5-1 2.9-1.7 3.1-.9.3-1.1-.1-.7-1.1.3-.9.2-1.9-.2-2.2-1.4-.8-2.2 5.6-1 7.1.9 1.1.7 1.4-1 1.4-1.3 0-2 .4-1.5 1.1.3.6 1.7.8 3 .5 1.9-.5 2.4-.2 2.4 1.3 0 1.1-.9 2.1-2.2 2.4-1.7.5-1.9.9-.9 2 .9 1.2.8 1.8-.4 3.1-1.5 1.5-1.5 1.6 0 1.6 1.2 0 1.5.6 1 2-.5 1.5-.3 1.8.9 1.4 1.1-.4 1.6 0 1.6 1.5 0 1.4-.6 2.1-2 2.1-1.1 0-2 .4-2 1 0 .5.9 1 2 1 2.5 0 2.7 2 .3 2.1-1 .1-2.2.1-2.6 0s-.3.8.3 1.9c.8 1.4.8 2.6 0 4.1-1 1.7-.8 2.1.9 2.6 1.1.3 1.8.9 1.5 1.4s-1.6.6-3 .3c-1.4-.4-2.4-.2-2.4.5 0 .6.6 1.1 1.3 1.1 2.1 0 3.5 2 3 4.1-.3 1-1.2 1.9-1.9 1.9-1.6 0-1.9 1.6-.4 2.5 1.7 1 1.1 2.5-1 2.5-1.1 0-2 .6-2 1.4s.7 1.3 1.6 1.2c.9 0 1.9.5 2.1 1.1.3.9-.6 1.3-2.7 1.3-2.6 0-3 .3-2.1 1.3.6.8.8 1.7.4 2.1s-.8 1.9-.8 3.4-.4 3.3-.9 4c-.4.7-.3 1.9.4 2.7.9 1 .6 1.5-1.1 2-2 .7-2 .8-.5 2.3.9.9 2.4 1.7 3.3 1.7s1.8.6 2.1 1.4c.3 1 0 1.2-1.4.7-2.2-.9-2.3-.9-4.6-.7-3.1.2-2 2 1.4 2.3 4.6.4 4.9 2.8.4 2.8-2 0-3.6.4-3.6 1 0 .5 1.4 1 3 1 1.9 0 3 .5 3 1.4 0 1.1-1 1.3-4.1.9-3.3-.5-4.1-.3-3.7.8.3.8 1.7 1.3 3.1 1.2s2.8.5 3.1 1.3c.4 1.1-.4 1.4-3.4 1.4-3.9 0-3.9 0-3.3 3.5.4 2.4.2 3.5-.6 3.5s-1 .8-.6 2c.4 1.1.2 2-.4 2s-1.1.8-1.1 1.8-.5 2.3-1.1 2.9c-.7.7-.7 1.3 0 1.7.5.4.8 1.3.4 2.1-.7 2 1.6 1.9 3.9-.2s3.3-1.1 1.6 1.6c-1.3 2.1-3.6 2.6-9 2.2-1.6-.1-2.8.3-2.8.9 0 2 5 9 6.5 9 2.1 0 1.9-1.9-.2-2.7-1-.4-2.1-1.1-2.5-1.7-1.1-1.7.2-2.7 2.3-1.6 1.1.6 2.4.8 2.9.5.6-.4 1.3.1 1.6.9.8 2 3.3 2.1 4.1 0 .4-1.1 1.3-1.3 3.4-.9 2.7.6 2.9.4 2.9-2.2 0-1.6.7-3.8 1.5-4.9 1.4-1.8 1.5-1.6.9 1.9-.4 2.6-.2 4.3.8 5.5 2.7 3.1 3 5.5 1.1 8.9-2.1 3.9-4.3 4.3-4.3.9 0-2.3-1.6-4.4-2.6-3.4-.8.9 2.6 7.8 4 7.8.7 0 1.8-1.2 2.5-2.6l1.2-2.7 2.3 2.2 2.4 2.2 2.5-2.7 2.5-2.7 1.7 2.6c2.7 4.2 4.2 4 7.6-.9l3.1-4.6 2.8 2.7c3 2.8 4.4 2.7 6.8-.7 1.8-2.5 2.9-2.3 4.7 1.2 1.5 3 3.8 3.9 5 2 .3-.6-.5-1.4-1.8-1.9s-2.7-1.7-3-2.5c-.9-2.3-3.9-2-6.7.7l-2.5 2.4-1.7-2.9c-1-1.5-2.4-2.8-3.2-2.8-1.4 0-5.9 4.7-6.9 7.2-.4 1-1 .8-2.1-.6-2.3-2.8-2.1-3.1 2.9-5.5 6.2-2.9 8.7-8.7 4.8-11-1-.6-1.3-1.1-.8-1.2 3.4-.4 5.1-.3 5.6.5.9 1.2 4.2-.1 3.4-1.4-.4-.6-1.1-.8-1.6-.5-.5.4-.9.1-.9-.4 0-.6-1.3-1.1-2.8-1.1-2.8 0-7.2-3.5-7.2-5.7 0-1.3-3-2.6-3.9-1.8-.3.3 0 .9.6 1.3.7.4 2.4 2.5 3.8 4.6l2.6 3.9-3.2-.7c-1.7-.3-4-.6-5-.6-1.1 0-1.9-.7-1.9-1.5 0-1.9-1-1.9-3.9.1-1.3.9-2.6 1.3-3 .8-.3-.5-2-1-3.8-1.1-2.8-.2-3.4.3-5 3.7-1 2.2-2.1 4-2.5 4-1.1 0-1-.8.8-6.5.9-2.8 1.7-5.7 1.9-6.5.9-5.2 2.6-7.3 4-5 1.2 2 3.2.9 4.8-2.5 1.8-3.7 3.1-4.4 4.1-2 .7 1.9 4 1.9 5.6 0 .7-.8 1.7-1.5 2.3-1.5 1.4 0 4.7 3.8 8.7 10.1 1.9 2.9 5.8 8.1 8.7 11.3 2.9 3.3 5.3 6.5 5.3 7.1s1.1 2.2 2.5 3.5 2.5 2.9 2.5 3.7c0 .7.7 1.3 1.5 1.3.9 0 2.8.8 4.2 1.7 1.5 1 3.1 1.8 3.7 1.9.6 0 1.7.2 2.4.2.6.1 1.2.7 1.2 1.3s-.7.8-1.6.5-1.2-.2-.9.5c.4.6 1.3.8 2.1.5 1.4-.6 9.9 4.1 14.2 7.8 1.3 1.2 2.2 3.1 2.2 4.8 0 1.8.4 2.7 1.1 2.2.6-.3.8-1.7.4-3.1-.5-2.2-.3-2.4 1.2-1.8 1 .4 3.8 1.4 6.1 2.2l4.4 1.5-3.2 3c-3.1 2.7-3.3 2.8-5.6 1.3-2.2-1.4-2.4-1.4-2.4.3 0 2.3-6.4 4.6-19 6.7-6.7 1.2-9.6 1.3-9.8.5-.3-.8-.8-.8-1.8.1-2 1.6-4.4.4-4.4-2.3-.1-2.2-.1-2.2-1.5-.4-1.2 1.6-1.7 1.7-3 .6-1.2-1-1.5-1-1.5.2 0 .8.5 1.9 1.1 2.5 1.4 1.4-13.2 2.7-21.6 1.9-3.3-.3-9.5-.8-13.8-1.2l-7.7-.6.6-3.7c.4-2.6.3-3.2-.5-2.1-1.2 1.8-1.2 1.8-3.5-5.2-1.1-3.2-2.3-5.8-2.8-5.8-.4 0-.8.1-.8.2 0 .5 3.8 12.3 4.6 14.2.7 1.8.4 1.9-4.7 1.2-3-.4-9.1-1.7-13.7-2.8-8.9-2.2-9.8-3-12.3-10-1.1-3.3-1.1-3.9.3-5 .9-.7 1.8-2.1 2-3.1.3-1.6.5-1.7 2.3-.3 1.6 1.2 1.8 1.7.8 2.7-2.9 2.9-.3 9.9 3.6 9.9.8 0 1.1.6.7 1.5-.6 1.7 1.9 2.1 2.9.4.5-.6 1.3-.3 2.2 1 .8 1.2 2.4 2 3.6 2 1.6-.1 1.7-.3.5-.6-3.2-.8-2.4-3.7 2.3-8.4 6.3-6.3 7-8.6 3.4-11.7-2.3-1.9-2.6-2.7-1.7-4.5 1-2.2 1-2.2 2 .5.6 1.4 1.6 2.9 2.2 3.3 1.4.9 4.7-2.1 3.6-3.2-.4-.4-1.1-.1-1.7.7-.8 1.3-1 1.3-1.9 0-.5-.8-1-2.1-1-2.8 0-2.1-3.3-1.3-5.5 1.4-1.8 2.3-2.4 2.5-4.2 1.5-3-1.5-3.6-1.4-6.9 1.1-1.5 1.3-3.8 2.1-5 2-1.2-.2-2.4.4-2.7 1.2-.8 1.9-3.7 2.1-3.8.3-.1-.6-.4-.1-.8 1.3-.6 2.2-1 1.7-3-3.8-3-8-5-10.5-10.6-13.2-4.7-2.3-6-5-2.4-5 2 0 4.8-2.5 4.9-4.3 0-1.4-3.1-.7-3.6.8-.4.8-1.5 1.5-2.5 1.5-1.1 0-2.4 1.1-3.1 2.5-.7 1.5-2 2.5-3.2 2.5-4.3 0-10 2.3-12.9 5.1-2.5 2.6-2.8 3.5-2.4 7.2 1 8.2 10 30.8 16.1 40.5 5 8 31.7 17.2 58.6 20.3 13.7 1.5 42.9.6 62-2.1 8-1.1 16.6-2.3 19.1-2.7l4.6-.5 2.2 6.8c3.2 9.9 4.3 11.1 12.9 12.9 14.6 3 60 1.3 67.4-2.6.9-.5 2.9-4.1 4.4-8.1s2.9-7.4 3-7.6 11 .9 24.1 2.5c19.9 2.3 27.7 2.8 47.8 2.8 25.1 0 32.7-.9 49-5.6 17.2-4.9 18-5.4 23.4-13.9 4.9-7.6 13.4-23.8 16.5-31.4.9-2.1 1.6-6.2 1.6-9.1 0-9.6-6.5-14.2-18.4-13.2-7.6.6-8.5.8-10.7 2.7-.9.8-2.8 2.3-4.2 3.2-3.2 2.2-5.4 7.1-9.2 20.3-2.3 7.7-3.7 11.1-4.9 11.3-.9.2-1.6-.1-1.6-.7s-1-1.1-2.2-1.1-3-.8-4.1-1.7c-1.8-1.7-1.8-1.7-.6 1 1 2.1 1.7 2.5 3.6 2.1 1.3-.4 2.3-.2 2.3.4s-2.6 1.4-5.7 1.7c-3.2.4-6.6.9-7.5 1.1-2.2.7-2.2 0-.2-3.1.9-1.4 1.2-2.5.6-2.5s-1.4.5-1.7 1c-1 1.7-2.5 1.1-2.5-1 0-1.5.7-2 2.8-2 1.6 0 3.2-.3 3.6-.7s1.3-.8 1.9-.8c.7 0 2.9-.7 4.9-1.5 6.1-2.3 7.3-9.8 1.9-11.5-1.1-.3-1.8-1.1-1.5-1.8.6-1.7-10.4-2.1-13.4-.6-2.8 1.5-4.4.2-4.4-3.5 0-1.5-.4-2.9-.9-3.2-1.6-1-.9-3.4 1-3.4 1.7 0 1.8-.3.8-2.4-.6-1.2-2-2.7-3.2-3.2-2.2-1-2.7-3.5-.7-4.1.6-.3 1.2.2 1.2 1.1 0 2 3.4 2.1 5 .1 1.1-1.3.9-1.5-1-1.3-3.5.4-3.4-1.6.2-3 2.3-.8 2.9-1.5 2.1-2.3-1.1-1.1-5.3.7-5.3 2.3 0 .5-1.4.8-3 .8-2.8 0-2.9-.2-1.8-2 .7-1.1 2.1-2 3-2 1.9 0 2.3-1.1 1.1-2.4-.5-.4-.8-1.1-.9-1.4 0-.4-.5-1.6-.9-2.6q-.9-1.95.3-2.4c1.6-.5 1.5-3.2-.1-3.2-.7 0-1.8.5-2.4 1.1-.7.7-1.3.7-1.7.1-.3-.5.5-1.7 1.9-2.6s2.5-2.6 2.5-3.8c0-2-.1-2.1-2-.3-2.1 1.9-4.2 1.3-2.2-.7 1.6-1.6 1.5-2.8-.3-2.8-.8 0-1.5-.7-1.5-1.6 0-1.1.6-1.4 2.1-.9s1.9.4 1.5-.4c-.4-.6-1.8-1.1-3-1.1-1.9 0-2.2-.4-1.9-2.5.3-1.3 1.1-3 1.9-3.6 2.1-1.7 1.7-2.8-.8-2.1-1.8.4-2 .2-1.4-1.4 1.8-4.3 1.9-5.7.2-6.6-2-1.1-2.1-2.7 0-4.2 1.3-1 1-1.4-2-2.6-4.1-1.6-4.5-2.9-1.6-4.8 1.1-.7 2-1.8 1.9-2.5q0-1.35-.6 0c-.5 1.5-3.9 1.7-4.7.4-.3-.5.1-1.4.9-2.1 1.2-1 1.3-1.6.4-2.6-1.2-1.4-.7-1.8 2.4-1.5 2.4.3 2.2-1.5-.3-2.2-2.3-.6-3.9-3.9-2.2-4.5 1.9-.6 1.4-2.2-.8-2.2-1.1 0-2-.6-2-1.4 0-1.7 2.4-3.8 3.3-2.9.4.3.7.2.7-.4s-.7-1.3-1.5-1.7c-2.2-.8-1.8-2.6.5-2.6 1.1 0 2-.5 2-1 0-.6-.8-1-1.8-1-2.1 0-6-2.6-5.1-3.4.3-.3 2.4-.8 4.7-1l4.2-.4v3.6c0 2.1.7 8.2 1.4 13.7 4.3 31 5.6 36.5 15.6 64.5 6.4 18.4 8 22 9.1 22 1.5 0 2-2 1-3.9-1.2-2.2 1.3-5.1 4.5-5.1 1.5 0 1.6-.2.5-.9-.9-.6-2.3-.5-3.8.2-1.3.5-2.4.8-2.6.6-4.2-7.1-4.5-9.9-1.6-14 2.2-3.2 1.6-3.8-1.3-1.2-2.5 2.2-3.7.9-5.4-5.8-1.4-5.5-.7-8.1 1.6-5.4.7.8 1.9 1.5 2.8 1.5 1 0 .6-.8-1.3-2.5-2-2-3-2.3-4-1.5-3.5 2.9-6.9-10.9-12.9-51.5-3-20-4.3-61.5-2.5-79.5 3.5-35.7 8.8-64 12-64 .5 0 .7 1.1.3 2.4-.4 1.8-.1 2.5 1.2 2.8 1.5.3 1.8 1.1 1.5 5-.1 2.6.3 5.6.9 6.7.8 1.6.7 2.6-.6 4.6s-1.4 2.8-.4 4c.6.8.8 1.9.4 2.6s-.7 2.6-.6 4.2c0 1.7-.3 3.8-.9 4.8-1 1.9-.1 7.9 1.1 7.9 1.6 0 9-11.5 9-14 .1-1.4.7-3.6 1.5-5 1.6-2.8 1.9-9.7.6-15.1-.9-3.7 0-7.1 1.3-5.1.4.6 1.3.9 2.1.5 1.2-.4 1.5.3 1.5 3 0 2.5 1 4.7 3.5 7.7 1.9 2.3 3.2 4.6 2.9 5.1s0 .9.6.9c.8 0 1 .9.6 2.5-.4 1.4-.2 2.5.4 2.5.5 0 1 1.3 1 3 0 1.6.3 3 .8 3 1.5 0 3.1-5.3 2.5-8.2-.5-2.4-.3-3 .8-2.6.8.3 1.6 2.4 2 5.4.5 4.4.6 4.7 1.5 2.5.7-1.5.7-4.3.2-7.5-2.6-15.6-3.2-18.4-4.6-21.1-1.7-3.5-6.3-9.8-7.4-10.3-2-.9-.5-2.2 2-1.6 3.4.8 5.2 3 5.2 6.6 0 2.5.3 2.8 2.6 2.2 2.9-.7 5.3 1.7 5.4 5.4 0 1.2.7 2.5 1.5 2.8 1 .4 1.5 2 1.5 4.5 0 2.1.4 3.9.9 3.9 1.6 0 3.2-5.6 2.5-8.6-.8-3.4-6.5-12.3-7.9-12.4-1.1-.1-7.5-8.2-7.5-9.4 0-.8 6.1 3.8 10.9 8.3 1.7 1.6 3.1 3.5 3.1 4.1 0 .7.7 1.8 1.6 2.4 2.8 2.1 1.7 15.4-1.7 21.5-1.1 1.8-1.7 3.6-1.4 4 1.1 1 4.4-3.8 5.3-7.7.5-2.1 1.4-5.8 2-8.4 1.3-5.2.6-8.2-4.2-17.5-2.5-5-9.8-12.3-12.2-12.3-2.8 0-6.4-2.4-6.4-4.2 0-1.5.5-1.8 2.2-1.3 1.7.6 2 .4 1.5-.9-.7-1.8 1.7-2.3 2.8-.6.3.5 1.5 1.5 2.6 2 1.8 1 1.9.9 1.3-1.7-.6-2.5-.5-2.6.8-1.5.9.7 2.1 1.1 2.8 1 .7-.2 1.5.3 1.8 1.1.3.9 0 1.1-.8.6-1-.6-1.1.3-.6 4.1.9 5.6 2 7.4 3.8 5.6 2.1-2.1 3.9-1.4 3.2 1.3-.6 2.6 1 3.6 1.9 1.1.3-.7 1.5-1.6 2.6-1.9 1.6-.4 2.1 0 2.1 1.5 0 2 .1 2.1 2 .3 2.6-2.3 2.6-7.4 0-14.9-2.9-8.7-9.8-14.4-18.4-15.5-4.2-.5-5-.9-5.1-2.9-.1-1.2-1-2.8-2-3.6-2.3-1.7-.3-3.1 2.4-1.6 1.1.5 2.2 1 2.5 1 1.3 0 .5-3.5-1.1-5.3-1.7-1.9-1.7-1.9.7-1.2 1.4.4 4.6 2.3 7.2 4.2 3.2 2.3 5.4 3.2 6.7 2.8 1.4-.4 2.3 0 3.1 1.5 1.4 2.6 3 1.7 3-1.7 0-7.1-11.4-15.3-21.3-15.3-5.1 0-14.3 4.3-19.2 9.1-1.7 1.6-3.3 2.9-3.7 2.9-.3 0 0-2.1.5-4.6.8-3.3 2.5-6.2 5.9-9.9 2.6-2.9 4.8-5.8 4.8-6.3 0-2.9-2.6-1.9-7.1 2.8-2.7 2.8-4.9 4.9-4.9 4.5 0-2.3 3.6-6.7 7.9-9.6 2.8-1.9 5.4-4.4 5.7-5.6.7-2.5 3.3-3.8 4.7-2.4.5.5 1 2.4 1.1 4.3.2 4 3.2 5.3 3.8 1.6.2-1.5 1-2.3 2.3-2.3 2.8 0 3.2-5.9.9-13.3-2.1-7-3-8.2-6-8.2-1.2 0-2.6-.5-2.9-1-.9-1.5-7.7-1.2-11.6.4-1.9.8-4.4 2.5-5.6 3.8-3.1 3.3-9.1 11.9-10.3 14.6-1.5 3.4-2.5 2.1-4.6-5.8-2.1-8.2-6.3-17.2-8.2-17.8-1.1-.4-1.2 0-.2 1.7.8 1.7.9 2.6 0 3.6-.8 1-.7 2.5.5 6 .8 2.6 1.3 5.6.9 6.7-.3 1 0 2.5.6 3.3.7.8 1.4 2.9 1.6 4.7s.6 4.3 1 5.5c1 3.4-.9 2.8-4.1-1.5-3-3.9-11.7-11.2-13.5-11.2-1.3 0-1.3 1.7 0 2.5.6.3 1 1 1 1.5s-1.6-.2-3.6-1.5c-4.9-3.3-10.1-3.3-16.2.1-6.6 3.7-8.2 5.3-8.2 8.6s1 3.6 3.5.8c2.1-2.3 4-2.7 3.2-.6-.7 1.8.3 2.8 1.7 1.7 2.2-1.7 10.8-3.3 11.9-2.2.6.6 2.2 1.1 3.5 1.1 1.4 0 2.2.5 2 1.2-.3.7.5 1.8 1.6 2.4 1.2.5 2 1.8 2 2.7-.1 1.3.3 1.6 1.6 1.2 1.1-.3 2.9.5 4.9 2.4 3.1 2.9 4 5.1 2.1 5.1-.5 0-1-.4-1-1 0-3.1-18.3-6.8-25-5.1-10.5 2.8-13.3 4.6-15.9 10.4-2 4.5-2.1 4.9-.5 7.9l1.6 3.2 2.7-3.3c2.1-2.5 2.9-2.9 3.8-2 .7.7 1.6.9 2 .5s.2-1.1-.6-1.5c-.8-.5.3-1 3-1.4 3.1-.4 5.3 0 7.9 1.3 2.7 1.4 4 1.6 4.8.8 1.2-1.2 6.2 1.4 6.2 3.2 0 .6 1 .8 2.3.5 1.8-.5 2.6 0 3.7 1.9.7 1.4 1.1 2.8.8 3.1s-3.3-.1-6.7-.9c-3.5-.8-8.4-1.3-10.9-1.1-2.6.3-7.1.5-9.9.6-5.1.2-6.7 1.1-4 2.3.6.3 0 .3-1.5 0-2.1-.5-3.5.2-7.2 3.6-2.5 2.4-4.6 4.6-4.6 5.1 0 1.4 5.3 1 7.3-.5 1.7-1.4 5.2-1.1 7.2.5.6.4 3 .3 5.4-.2 2.6-.6 4.7-.6 5-.1s2.5 1.2 4.9 1.5 4.7.8 5 1.2c1.9 1.8-4.4 2.5-24 2.5-20.3 0-21.8-.1-21.8-1.8 0-1 .4-2.2.9-2.7.5-.6 1.2-2 1.6-3.3.7-2.3.6-2.3-5.7-1.6-3.4.4-7.2 1.3-8.3 2-1.2.9-3.3 1.2-5.5.9l-3.5-.6 2.8 1.6c1.5.9 2.7 2 2.7 2.5 0 1.2-7.9.2-9.6-1.1-.6-.5-1.6-.3-2.3.4-1.7 1.7-3.3-1-2.6-4.8 2.1-12.3 1.9-14.6-2.3-23-4.4-8.7-8.5-20.5-10.3-29.6-.7-3.6-2-6.6-3.4-7.9-2.2-2-2.8-2.1-12.1-1.2-6.3.6-14 .6-21.7 0-10.8-.9-12.2-.8-13.3.7-.7.9-3.2 7.6-5.7 14.9-2.5 7.2-6.4 17.4-8.7 22.6-4.4 10-4.9 14-2.8 21.4.9 2.9 2 4.2 4.5 5.2 5 2.1 4.1 3.5-1.8 3-6.1-.6-6.6-1-4.8-3.3 1.3-1.5 1.2-1.6-.6-.9-1.1.5-3 1.1-4.2 1.3-2.5.6-3.2 2.3-.9 2.3.7 0 1.9.6 2.5 1.4 1.1 1.3.4 1.4-4.6.9-6.8-.7-7-.8-5.3-2.8 1-1.3.9-1.5-.7-1.5-1 0-2.9-.7-4.1-1.6-2.2-1.5-11.7-3.5-12.6-2.7-.2.3.9 2.7 2.5 5.4 1.6 2.8 2.9 5.2 2.9 5.4 0 .3-2.3.5-5 .5-4.7 0-5-.1-4.5-2.3.4-1.4 0-2.9-1.2-4-4.9-4.8-9.1-7.7-11.8-8.3-1.6-.3-3.4-1-4-1.4-.5-.4-2.5-1.1-4.3-1.5-3.7-.8-5.2-3-5.2-7.6 0-2.7.3-3.1 2.2-2.6 1.2.4 2.8.1 3.5-.5 1.1-.9 1-1.4-.3-2.9-2.3-2.6-1-3.6 2.7-2.2 2.6 1 3.6.9 5.5-.4 1.3-.8 2.4-2.2 2.4-2.9 0-2.1 1.8-1.7 4.6 1.1 3.2 3.2 3.7 3.1 3.2-.4-.3-2.3-.1-2.7 1.4-2.3 1 .2 2.1.8 2.4 1.3.9 1.5 2.4 1 2.4-.8 0-.9-2.1-3.6-4.6-5.9l-4.6-4.3-10.1.6c-8.4.4-11.1 1-15.2 3.2-5.4 2.8-11.2 6.4-13.3 8.2-.7.6-1.8.9-2.4.7-1.5-.5 4.3-6.1 10.9-10.5 5.8-3.8 7.2-5.8 5.5-7.5-.8-.8-2.1-.5-4.6 1-2.2 1.3-3.3 1.6-3 .7.7-1.6 15.3-13.9 17.7-14.8.9-.4 1.7-1.3 1.7-2.2 0-.8 1.7-2.2 3.7-3 4.2-1.8 3.7-2.8-2.2-4.4-4.8-1.3-10.1 0-16 3.9-2.2 1.5-5.9 3.9-8.2 5.3-2.3 1.5-5 3.9-6 5.4-2.5 4.1-7.5 10.3-8.2 10.3-.3 0-.6-2.6-.6-5.8 0-4.8.6-6.6 3.3-10.7 3.5-5.3 4-7.5 1.6-7.5-1 0-.2-1.6 2.7-5 2.3-2.8 4.8-5 5.4-5 2.1 0 2.4-5.6.4-6.8-1.4-.9-2.4-.3-5.5 3.2M47.5 27c.3.5-.1 1-1 1s-1.3-.5-1-1c.3-.6.8-1 1-1s.7.4 1 1m18 2c.3.5-.1 1-.9 1-.9 0-1.6-.5-1.6-1 0-.6.4-1 .9-1 .6 0 1.3.4 1.6 1m27.5-.3c-.1 1.2-2.9 4.7-3.4 4.2-.7-.7 1.3-4.9 2.4-4.9.5 0 1 .3 1 .7m125 2.9c5.8.3 13.9.1 18-.4 6.3-.8 7.8-.7 9.3.6.9.8 1.7 1.8 1.7 2.1 0 .4-4.4 6.5-9.7 13.7-5.4 7.2-10.8 14.4-11.9 16-1.2 1.6-2.4 2.7-2.6 2.4s-2.8-3.7-5.6-7.7C206 42.7 201 35.1 201 33.8c0-2.2 2.3-3.9 4.5-3.4 1.1.3 6.7.8 12.5 1.2M68 34c0 .5-.4 1-1 1-.5 0-1-.5-1-1 0-.6.5-1 1-1 .6 0 1 .4 1 1m43.5 0c.3.5-.1 1-.9 1-.9 0-1.6-.5-1.6-1 0-.6.4-1 .9-1 .6 0 1.3.4 1.6 1M384 37.7c-.1 2.6-8.1 20.3-9.2 20.3-1.4 0-.9-2.7.7-4 .9-.7 1.3-2.1 1-3.1-.3-.9-.1-2 .4-2.3 1.4-.9 4.1-6.6 4.1-8.6 0-.9.3-2 .7-2.3.9-.9 2.3-.9 2.3 0m11.5.3c-.3.5-1 1-1.6 1-.5 0-.9-.5-.9-1 0-.6.7-1 1.6-1 .8 0 1.2.4.9 1m-146.1 4.7c1.3 7 4.8 17.8 7.7 23.7 1.6 3.2 2.8 6 2.6 6.2-.1.2-6.5.4-14.1.5l-13.8.1-2.8-2.9-2.9-2.9 10.7-14.6c5.8-8.1 10.9-14.5 11.3-14.2.4.2 1 2.1 1.3 4.1m-44 3c6.4 9.5 10.5 15.3 13.2 18.8l2.2 3-2.8 3.2-2.8 3.1-14.6.4c-8 .2-14.6.3-14.6.3 0-.1 1.7-4.3 3.8-9.5 2.2-5.2 5.1-13.2 6.6-17.8 1.5-4.5 3.1-8.2 3.5-8.2.5 0 2.9 3 5.5 6.7m-130.9.5c.6.6-.5.7-3 .2-4.8-.8-5.7-1.3-5-2.4.6-.9 6.3.7 8 2.2m55 11.7c.7 1.2-1.2 2.4-2.5 1.6-1.1-.7-.4-2.5 1-2.5.5 0 1.1.4 1.5.9m-88.3 2.4c6 2.1 5.6 2.7-2 2.7-7 0-7.2-.1-6-2 1.5-2.3 2.9-2.4 8-.7m80.1 1.3c-2.4 1.8-4.3 1.8-4.3 0 0-1.5 2.6-2.5 4.8-1.8.9.3.8.8-.5 1.8M51.5 64c-.3.5-1.4 1-2.4 1s-2.6.9-3.6 2c-2.1 2.4-3.7 2.6-2.9.5.7-1.9 5.2-4.4 7.7-4.5 1 0 1.5.4 1.2 1M373 66.2c0 1.6-.3 1.9-1.1 1.1-.6-.6-.8-1.6-.5-2.2 1.1-1.7 1.6-1.3 1.6 1.1m-42.4 2.9 1.9 2.2-3-.7c-3.6-.9-3.9-1.2-3-2.5.9-1.6 2-1.3 4.1 1M52.5 69c-.3.5-1.4 1-2.4 1s-2.4.7-3.1 1.5-1.9 1.5-2.8 1.5c-1 0-.5-.9 1.4-2.5 2.8-2.4 8.2-3.6 6.9-1.5m174.9 3.1c3.8 4.5 3.4 8.4-1.1 10.8-1.6.8-2.9.8-5 0-5.1-1.9-5.7-5.8-1.5-10.7 3.4-4 4.4-4 7.6-.1m34 4.2c1.5.7 1.7 1.7 1.3 5-.2 2.3-1 5.4-1.6 6.9-.9 2.5-1.3 2.7-3.6 1.8-3.4-1.3-11.1-1.3-13.6 0-1.4.8-2.7.7-4.8-.5-3.8-1.9-10-1.9-12.8 0-1.7 1.2-2.7 1.2-5.2.4-1.7-.6-4.8-.8-6.9-.5-2 .3-7.3.8-11.7.9-4.4.2-9.1.7-10.5 1.1-1.6.4-3.2.2-4.2-.6-2.1-1.5-4.3-11.7-2.9-13.1 1.2-1.2 22.9-2.2 26.5-1.3 1.4.3 2.6 1.3 2.6 2.1 0 .7 1.1 2.7 2.4 4.2 2 2.3 3.2 2.8 6.9 2.8 5.2 0 8.3-2.2 9.2-6.5.5-2.1 1.3-3 3.3-3.3 4.9-.8 23.7-.4 25.6.6M80.3 81.1c.6.9.7 2.4.3 3.4-.5 1.4-.9 1.5-2.1.5-.8-.6-2.3-.9-3.5-.5-1.5.5-2 .2-2-1.2 0-4.1 5.1-5.6 7.3-2.2m12.5 1.1c1.8 1.8 1.5 2.5-2 4.2-4 2-3.8 2.1-3.8-1.3 0-3.8 3.3-5.4 5.8-2.9M393 86c0 .5-.9 1.4-2 2-1.5.8-2 .8-2-.3 0-.8.3-1.7.7-2 1-1 3.3-.8 3.3.3m-68 .4c0 .3-.4.8-1 1.1-.5.3-1 .1-1-.4 0-.6.5-1.1 1-1.1.6 0 1 .2 1 .4m-220.6 2.2c.8 2.1-.1 3.4-1.9 2.7-.9-.3-2.2 0-3 .7-1.2 1-1.6.9-2.1-.4-.3-.9-.1-2.3.6-3.1 1.6-2 5.6-1.9 6.4.1M384 90c0 .5-.5 1-1.1 1-.5 0-.7-.5-.4-1 .3-.6.8-1 1.1-1 .2 0 .4.4.4 1m-147.9 1c3.7 1 7.7 4.5 6.6 5.7-.4.3-3.3-.2-6.4-1.2-3.2-1-6.8-1.8-8.1-1.7-4.6.4-1.4-2.7 3.8-3.7.3 0 2.1.4 4.1.9m-12.8 2.7c.9.9 1.7 2.1 1.7 2.7s-.5.5-1.2-.2-2.8-1.2-4.7-1.2c-4.4 0-8.1-1-8.1-2 0-2.4 9.4-1.8 12.3.7M259 93c2.9 1.5 2.7 4.5-.2 3.5-1.3-.4-4.5-1-7.3-1.2-5.7-.5-7.8-1.8-5.5-3.4 1.8-1.2 10-.5 13 1.1m34-1.2c0 .4-1.2 2.3-2.8 4.1-2.5 3.1-2.9 3.2-5.5 2-3.3-1.5-3.2-3.8.3-5.6 2.8-1.4 8-1.7 8-.5M82.4 93.6c2 2 2.1 1.8-1 4.9l-2.7 2.7-2-2c-1.9-2-1.9-2.2-.3-4.6 1.9-3 3.8-3.3 6-1m76.5-.7c1.6 1 2.4 6.1 1 6.1-1.3 0-5.9-4.6-5.9-6 0-1.2 3-1.3 4.9-.1m49.6 2.3c1.8 2.1 2.3 3.4 1.5 3.6-.7.3-1.6-.1-2-.8-.5-.8-3.4-1.5-7-1.6-3.4-.2-6.6-.7-7.2-1-2.1-1.3 2.5-3.4 7.3-3.4 4.1 0 5.1.4 7.4 3.2M163 96c0 .5-.4 1-1 1-.5 0-1-.5-1-1 0-.6.5-1 1-1 .6 0 1 .4 1 1m-71.2 4c-.3 2.4-3.2 4.9-4.4 3.8-.4-.4.1-2.4 1.1-4.4 1.8-3.9 3.9-3.5 3.3.6m51.2-.4c0 1-1.4 1.4-5 1.4-3.9 0-5-.3-5-1.6 0-1 .6-1.4 1.5-1 .8.3 1.5.1 1.5-.4s.6-.7 1.4-.4 1.7 0 2.1-.6c.9-1.4 3.5.6 3.5 2.6m223.4-2.1c.3.8.2 1.5-.3 1.5s-1.4-.7-2.1-1.5c-1-1.2-1-1.5.3-1.5.8 0 1.7.7 2.1 1.5m-244.8.6c3.2-1.4 6.7-1.4 8.2.1 2.4 2.4 1.1 2.8-8.2 2.8-7.6 0-9.5-.3-10-1.6-.4-1.2-.1-1.4 1.3-.9 1.1.3 2.2.1 2.6-.5.5-.8 1.1-.8 2.1.1 1.1.9 2.1.9 4 0M359 98c0 .5-.5 1-1.1 1-.5 0-.7-.5-.4-1 .3-.6.8-1 1.1-1 .2 0 .4.4.4 1m-13.2 3.2c.2 1.9-.2 2.8-1.6 3.3-2.9.9-3.7 3.6-1.2 4.2 2.2.6 2.6 2.3.9 4-.8.8-.8 2 0 4.5.8 2.4.8 4.8.1 8.3-.6 2.8-1.3 7-1.6 9.5-1.5 12.6-3.1 3.3-3.3-19.4-.1-11.8.2-14.2 1.6-15.8 2.3-2.5 4.7-1.9 5.1 1.4m-31 .8h21l.6 6.2c.3 3.5.8 22.9 1.1 43.3.3 20.3 1 59 1.6 86 1.4 58.7.9 64-7.8 85-13.1 31.8-45.2 54.2-85.8 60-14.7 2.1-34.2 1.9-44-.4-37-9-70.8-41.2-81.3-77.6-4.1-14.1-4.2-16.2-4.2-110.2V103h25.8c17.6 0 26.2-.4 26.9-1.1 1.2-1.2 3.3-.4 3.3 1.2 0 .5-.6.9-1.3.9s-1.8.5-2.4 1.1-9.6 1.1-24.6 1.2c-12.9.1-23.8.4-24 .7-.3.3-.8 40.1-1.2 88.5-.7 92.2-.7 94.2 3.6 109 3.1 10.6 11.1 26 18.6 36 7.4 9.7 16.1 17.6 29.1 26.2 9.8 6.4 16.1 9.4 28.1 13 8 2.5 9.9 2.7 26.6 2.7 15.7-.1 19.5-.4 29.6-2.7 24.7-5.5 41.4-14.4 56.1-29.5 10.7-11 16.2-19.8 20.8-33.3 5.2-15.2 6-20.9 6-44.4 0-24.8-2.9-166.5-3.4-167.4-.2-.3-10.1-.5-22-.3-18.1.2-21.6.5-21.6 1.7 0 1.3 3 1.4 20.9.8l20.8-.6.2 15.4c.1 18.6 2 114.6 2.4 124.1.1 3.8 0 6.8-.4 6.8-.3 0-8.7-3.9-18.5-8.6-9.9-4.7-22.8-10.9-28.9-13.8-6-2.9-21.5-10.4-34.2-16.7-22-10.7-23.3-11.5-23.7-14.3-.3-1.7-.8-21-1.1-42.9-.5-34.8-.4-39.7.9-39.7.8 0 2.1.6 2.9 1.4s3.1 1.8 5.1 2.1c2 .4 5.5 2 7.9 3.6 2.3 1.6 4.5 2.9 4.9 2.9s.6-2.8.3-6.1c-.4-5.7-.4-6 1.3-4.8.9.7 2.2 1.8 2.7 2.4 1.1 1.2 13.6 6.5 15.4 6.5 1.5 0 1.4-2.3-.1-3.8-2.3-2.3-.1-2.2 6 .3 3.4 1.4 6.5 2.5 7 2.5s.7-2.5.4-5.5l-.4-5.5 4.6.6c5.4.8 5.9-.4 2.6-5.8-2.5-4.1-2.5-4.3.2-7 1.9-1.9 2.2-2 3.3-.5s3.9 1.7 22.3 1.7m50.3 1.3c-1 .9-1.1.8-.5-.6.3-1 .9-1.5 1.2-1.2s0 1.1-.7 1.8m12-1.3c1.3.8 1.9 2.1 1.9 4.5 0 1.9-.4 3.5-1 3.5-.5 0-1-.9-1-2 0-3-5.6-2.8-6.4.2-.4 1.7-.8 2-1.7 1.1-1.7-1.7-.6-5.6 2.1-7 3.1-1.6 3.6-1.6 6.1-.3m-100.3 4c1.8 1.7 2.2 3.2 2.2 8 0 3.3-.4 6-1 6-2.7 0-8.1-3.7-9.3-6.4-1.7-3.8-2.9-9.6-2-9.6.4 0 1.8 1.2 3 2.7 2.5 2.9 4.4 2.4 2.5-.7-2.8-4.6-.3-4.6 4.6 0m-33.7-.7c3.3 2.2 3.4 2.5 3.5 9 .1 4.6-.2 6.7-1 6.7-1.7 0-14.1-5.4-16-6.9-2.2-1.8-2-4.4.5-5.9 1.2-.8 1.8-1.9 1.5-2.8-.5-1.3 0-1.4 2.4-.9 1.9.4 3 .3 3-.4 0-1.8 2.4-1.3 6.1 1.2m12.4 2.2c1.8 1.7 2.5 3.3 2.2 4.6q-.45 1.95 1.5 3c1.9 1 2 .9 1.4-1.7-1.8-7.3-1.8-8.4-.3-8.4 2.5 0 3.8 2.6 4.3 8.9.5 6.7.3 6.9-5.4 4.6-4.9-2.1-8.2-5.3-8.2-8.1 0-1.3-.4-2.6-1-2.9-1.6-1-1.1-2.5.9-2.5 1 0 3 1.1 4.6 2.5m-81.6 1.6c-.7.4-1 1.1-.7 1.5.4.3 2-.3 3.6-1.5 3.5-2.4 5.7-2.7 4.9-.6-1 2.5 1 2.5 2.1 0 .7-1.4 1.6-2.5 2.2-2.5 1.4 0 1.2 1-.8 4.4-1.9 3.1-8 5.6-14 5.6-3.3 0-3.3-.1-2.7-3.3 1.3-5.6 2.3-6.9 4.7-5.6 1.6.9 1.8 1.3.7 2m47.7 1.6c2.3.8 1.6 2.6-2.2 6.1-2.9 2.7-3.9 3.1-5 2.1-.8-.7-1.2-2-.9-3 .4-1.3.1-1.9-.9-1.9-.9 0-1.3-.6-1-1.5.5-1.2.9-1.2 2.9.1 3.1 2 4.9 1 3.4-1.7-.8-1.5-.7-2.4.3-3.6 1.2-1.5 1.3-1.4 1.6.6.2 1.2 1 2.5 1.8 2.8m64.7-2.6c.4 1.5.1 1.9-1.1 1.7-2.1-.4-2.9-3.8-.9-3.8.8 0 1.7.9 2 2.1m71.5.2c.2 1-.3 1.7-1.2 1.7-1 0-1.6-.9-1.6-2.1 0-2.4 2.3-2.1 2.8.4M113 109.4c0 .8-.4 1.7-.9 2.1-1.2.7-2.4-1.2-1.6-2.5.9-1.5 2.5-1.2 2.5.4m92-.5c0 .6-.4 1.3-1 1.6-.5.3-1 1.6-1 2.8 0 2.4-3.1 5.7-5.5 5.7-.7 0-1.6.4-1.9.9s-1.9 1.1-3.6 1.3c-2.7.4-3 .2-3-2.3 0-1.8 1-3.8 2.7-5.4 3-2.7 6.6-3.4 5.7-1.1-.3.8-.1 1.7.5 2.1.6.3 1.1.1 1.1-.5 0-1.9 3.2-6 4.6-6 .8 0 1.4.4 1.4.9m-60.2.8c-4.3.2-11.3.2-15.5 0-4.3-.1-.8-.3 7.7-.3s12 .2 7.8.3M57 112.9c0 .5-.9 1.1-2.1 1.4-1.4.4-2 1.3-1.9 2.9.4 4.4 0 5.5-1.1 3.5-.5-.9-1.8-1.7-2.7-1.8-1.2 0-1.1-.3.6-.9 1.2-.5 2.2-1.4 2.2-2 0-1.5 2.3-3.9 3.8-4 .6 0 1.2.4 1.2.9m313.5 2c.3.5-.5 1.1-1.7 1.3-1.7.2-2.2.9-2 2.5.4 2.8-1.4 3-2.8.4-1.9-3.7-1.2-5.1 2.4-5.1 1.9 0 3.7.4 4.1.9m-158.8 2.8c.7 1.5 1.2 2.7 1 2.8-2.4 1.2-5.6 2.3-5.9 2-.2-.3-.2-2 0-4 .5-4.3 3.1-4.7 4.9-.8m-111 2.3c.5 0 1.5 2.2 2.1 5 .6 2.7 2.3 6.8 3.7 9s2.5 4.4 2.5 5c0 .5.5 1 1 1 .6 0 1-.9 1-2s.5-2 1-2c.7 0 1 13.4.9 38.2 0 21.1-.2 37.8-.4 37.3-.2-.6-1.4-8.7-2.5-18-2.5-20.4-5-35-9.5-54.5-1.8-8-3.6-16.3-4-18.5-.7-3.9-.6-3.9 1.2-2.2 1.1.9 2.4 1.7 3 1.7m-57.3 7.5c-.4.8-1 1.5-1.5 1.5s-.9-.7-.9-1.5.7-1.5 1.5-1.5c.9 0 1.2.6.9 1.5m312.9 7.8c-.8 2.8-1.9 6-2.4 6.9s-.9 2.6-.9 3.7c0 1.2-.7 2.1-1.5 2.1-1.3 0-1.4.4-.4 2.2.9 1.8.8 2.4-.5 3.4-1.1.8-2.4 4.6-3.6 10.6-1.6 8.5-2.5 15.7-4.7 42.3-.8 8.6-.8 8.2-1.4-10-.7-20.8-.8-52.8-.2-48 .5 3.8 2.4 7.6 3.5 6.9.4-.3.8-2 .9-3.7 0-3 .1-3.1 1.1-1 .6 1.3 1.5 2.3 2 2.3 1.2 0 .9-2.3-.7-4.4-1.7-2.2-1.1-3.8 1-2.9 1.1.4 1.5-.3 1.5-2.8 0-2.6.3-3 1-1.9.8 1.2 1 .8 1.1-1.5.3-4.9.4-5.3 1.2-6.1.4-.4.7-1.8.7-3.1 0-2 .3-2.2 1.9-1.3 1.9 1 1.9 1.2.4 6.3M75 131.5c0 .8-.4 1.5-1 1.5-.5 0-1-.7-1-1.5s.5-1.5 1-1.5c.6 0 1 .7 1 1.5m317 2.1c.3 1.6 1 2.8 1.5 2.6.6-.1 1.3 1.1 1.8 2.7.4 1.7 1.2 3.3 1.7 3.6 1.3.8 1.3 6.5 0 6.5-.5 0-1-1-1-2.3 0-1.2-1.6-4.7-3.5-7.7-3.5-5.5-4.6-9.5-2.2-8.8.6.3 1.4 1.8 1.7 3.4M95.5 133c-.3.5-.1 1.8.5 2.9.7 1.4.7 2.2 0 2.6s-.7 1.1-.2 1.8c1.4 1.9 3.2 12.6 3.3 20 .1 3.7.6 6.7 1.1 6.7.6 0 .7.7.4 1.6-.3.8.1 2.8.9 4.5.9 1.6 1.1 2.9.5 2.9-1.5 0-1.2 2.6.5 4 1.1.9 1.3 1.6.5 2.4-1.2 1.2-1.4 5.6-.1 5.6.5 0 .9 1.1.9 2.5s-.4 2.5-.9 2.5-.9.5-.9 1.1.9.9 2 .6 2-.1 2 .4c0 .6-.9 1.9-2 3.1-2.4 2.6-2.5 3.8-.5 3.8.8 0 1.5.3 1.5.8 0 .9-4 3.5-4.6 2.9-.3-.3-.9-7.8-1.4-16.8-.9-16.7-2.4-32.2-4-43.9-1.3-8.7-1.3-14.3 0-13.5.6.4.8 1 .5 1.5M75 137.1c0 1-.4 1.9-1 1.9-.5 0-1-1.2-1-2.6s.4-2.3 1-1.9c.6.3 1 1.5 1 2.6m-35 1.4c0 1.9-.4 3.5-1 3.5-1.1 0-1.3-3-.4-5.4 1-2.5 1.4-1.9 1.4 1.9m135.3 12.2c-.7.2-1.9.2-2.5 0-.7-.3-.2-.5 1.2-.5s1.9.2 1.3.5m201.1 3.8c.3.9 0 1.5-.8 1.5s-1.6-.7-2-1.5c-.3-.9 0-1.5.8-1.5s1.6.7 2 1.5M179 155c0 .5-.5 1-1.1 1-.5 0-.7-.5-.4-1 .3-.6.8-1 1.1-1 .2 0 .4.4.4 1m-.4 11.9c8.2 6.4 8.6 15.9 1.1 22.9-7.6 7.1-21.8 3.2-24.9-6.9-2-6.9.4-12.6 7.3-16.9 4.5-2.8 12.3-2.4 16.5.9M354 171c1.3.8 1.2 1.3-.9 3.2l-2.3 2.3.7-2.3c.4-1.3.2-2.2-.5-2.2-.6 0-.8-.5-.5-1 .8-1.2 1.6-1.2 3.5 0m-2.1 11.3c.1.5-.3.5-.9.2-.5-.3-1-1.6-.9-2.8 0-2.1.1-2.1.9-.2.5 1.1.9 2.4.9 2.8M146 183c0 .5-.4 1-1 1-.5 0-1-.5-1-1 0-.6.5-1 1-1 .6 0 1 .4 1 1m207 4c0 1.8-.5 3-1.3 3s-1.4-1.2-1.4-3 .6-3 1.4-3 1.3 1.2 1.3 3m-203 4.9c0 .6-.4 1.2-.8 1.5-.5.3-.9-.1-.9-.9s.4-1.5.9-1.5c.4 0 .8.4.8.9m202.6 30.3c-.1 15 .3 29 .7 31 .8 3.7.7 3.8-2.1 3.8-2.9 0-5.5-3.1-3.3-3.8 1.8-.6 1.3-2.2-.6-2.2-1.6-.1-1.6-.2-.2-1.3 2.3-1.8 2.7-3.7 1.9-9.2-.4-2.8-.4-5.5.1-6.1.6-.7.5-3.2-.2-6.3-.8-3.8-.8-5.5.1-6.5.7-1 .8-1.6 0-2.1-1.5-.9-1.2-4.6.6-6.6 1.4-1.6 1.4-1.9 0-4.2-1.2-1.8-1.4-3.1-.7-4.9.6-1.7.6-2.9-.1-3.6-.6-.6-.4-1.7.8-3.1 1-1.1 2.1-2.1 2.5-2.1.3 0 .6 12.3.5 27.2m-120.1-13.7c2.2.9 4.7 2.3 5.5 3.1.8.7 1.8 1.3 2.3 1.3 1.8.2-.1 1.5-2.1 1.4-1.9-.1-1.9 0-.2.4 1.4.3 2 1.2 2 3.4 0 2.6.3 2.9 3.4 2.9 1.9 0 3.6-.5 3.8-1.1.3-.9 1.4-.7 3.8.4 1.9.8 5.2 2.1 7.3 2.7 2 .6 3.7 1.3 3.7 1.5s.3 1 .6 1.9c.8 2.2-2.2 2.1-3.4 0-.6-1-1.4-1.4-2.2-.9-1 .6-.8 1 .4 1.7 1.6.9 1.6 1.1-.1 2.5s-1.7 1.4.2.7c1.1-.5 4-.8 6.5-.9 3.7 0 4.5.3 4.8 2 .2 1.2 0 1.6-.5.9-.4-.6-1.7-1.4-2.8-1.7-1.9-.7-1.9-.6-.2.7 1 .8 1.5 2 1.1 3s0 1.8 1 2.2c2.2.9 2.9.1 3-3.6.1-1.7.6-2.9 1.1-2.8.6.2.9 1.1.9 2-.1 1 .3 1.8.8 1.8.6 0 .8-.7.4-1.5-.3-.8-.1-1.5.4-1.5.6 0 1 1.1 1 2.5 0 1.8-.4 2.3-1.5 1.9-.8-.4-1.5-.1-1.5.5s.6 1.1 1.3 1.1c.8 0 1.4.7 1.4 1.5 0 1.8-1.3 2-2 .2-.3-.7-.6-.4-.6.7-.1 1.2-.6 1.6-1.6 1.2-.9-.3-1.5 0-1.5.8s-.7 1.7-1.5 2c-1.2.4-1.5 1.6-1 5.3.3 2.6 1 5.2 1.5 5.7 1.6 1.6 1.2 4.2-1 6.7-1.6 2-1.9 2.1-2 .7 0-.9.7-2.1 1.7-2.6 1.1-.7 1.4-1.5.8-2.8-.7-1.8-.7-1.8-1.6.1-.6 1.3-.7.6-.3-2.4.4-3.1.3-4.1-.5-3.7-.6.4-1.1 2.9-1.1 5.6 0 3.9-.4 5.2-2 6-2.3 1.2-1.7 3.5.7 2.6.8-.3 1.1-.1.8.5-.4.5-1.5.7-2.6.4-1.3-.5-1.9-.2-1.9 1s-.4 1.4-1.9.6c-2-1.1-9.1-.3-9.1 1 0 .5.9.9 1.9.9 1.1 0 2.3.4 2.6 1 .3.5-.1 1-1 1s-1.4.4-1.1.9c.4.5 0 1.2-.6 1.5-.7.3-.1.4 1.5.1 3.6-.7 3.5 0-.3 1.3-1.6.6-2.9.8-2.9.4.4-2.5-.5-3-4.3-2.8-3.6.1-4.2.4-4 2 .2 1-.2 2.3-1 2.8-1.5 1.1 3.3.6 6.7-.6 2-.8 2-.7.1.8-3.2 2.6-7.4 2-10.8-1.4-1.7-1.7-2.8-3.3-2.5-3.6s1.2.3 1.9 1.5 2.1 2.1 3 2.1c2 0 2.2-.8.8-3-.8-1.2-1-1.2-1.1.5v2l-.8-2c-.5-1.2-.4-2.3.3-2.7 1.3-.9 1.1-1-2.9-1.3-4.5-.3-8.7-2.6-7.5-4 .5-.7.6-1.6.2-2-.4-.5-.1-.5.6-.1s1.2.2 1.2-.5.3-1 .6-.7c.3.4.1 1.6-.6 2.7-.6 1.2-.7 2.1-.1 2.1.5 0 1.2-.6 1.4-1.3.3-.7.6-.4.6.6.1 1 .6 1.5 1.1 1.2.7-.4.7-1.2 0-2.5-1.3-2.4-1.4-5.2-.2-3.2q.9 1.2.9-1.8c0-1.6-.4-3-.9-3-.4 0-.8.7-.8 1.5s-.3 1.5-.7 1.5c-.5 0-.8-2-.8-4.5s.3-4.5.7-4.5c.5 0 .8.7.8 1.5s.5 1.5 1.1 1.5.9-.7.5-1.5c-.3-.8-.1-1.5.4-1.5.6 0 1-.5 1-1 0-.6-.9-1-2.1-1-1.1 0-1.8-.4-1.4-.9.3-.5.1-1.2-.5-1.6-.5-.3-1-1-1-1.6 0-1.4 2.8-1.1 3.3.3q.6 1.5.6 0c.1-.7-.6-1.5-1.4-1.8-1.2-.5-1.3-1-.4-2 .9-1.2.5-1.4-2.7-1.3-2.2.1-3.1.3-2.1.6 1.9.5 1.9.5 1.1 2.7-.3.9-1.3 1.6-2.1 1.6-.9 0-1.3-.6-.9-1.5.6-1.7-2.9-2.2-3.9-.5-.3.5-1.4 1-2.3 1-1.5 0-1.5-.2-.2-1 1.3-.9 1.3-1.1 0-2-.8-.5-2.8-.9-4.5-.9-3 .2-3 .2.5.9l3.5.7-4.5.3c-4.2.2-4.3.3-1.5 1l3 .8-3 .1c-4.7.1-5.7-1-5-5.5.6-3.1.5-3.7-.5-2.7-.7.6-1.3 3.1-1.3 5.5 0 3.1-.2 3.8-.8 2.3-1.3-3.3-1-6.9.7-9.3 2.2-3.1.6-2.7-2.2.5-2.4 2.8-2.4 2.8-1.9.4.2-1.4.8-2.7 1.2-3 1.8-1.3 1.1-3.2-2.1-5.6l-3.4-2.6-4.2 2.1c-5.2 2.7-4.5 4 .9 1.6 4.4-2.1 8.1-1 8.1 2.4 0 1.7-.6 1.9-3.9 1.7-3.7-.2-7.2-1.7-4.1-1.7.7 0 1.1-.3.8-.6-.4-.3-1.6 0-2.8.6-1.8.9-2.4.9-3 0s-1.4-.8-3.6.4l-2.9 1.7 3.3-.6c1.7-.4 3.2-.4 3.2 0 0 1.7-2.2 4.5-3.5 4.5-1 0-1.4.9-1.3 2.5.1 1.4.6 2.5 1 2.5s.8.4.8 1c0 .5-1.1 1-2.5 1-1.6 0-2.5-.6-2.5-1.5 0-2-3.4-1.9-5.1.1-1.2 1.4-1 1.6 1.6 1.2 2.7-.3 3 0 3.3 2.7.3 2.3.1 2.7-.9 1.8-.9-.9-1.5-.9-2.5.2-1.5 1.5-1.9 3.5-.6 3.5.4 0 1.3-.5 2-1.2.6-.6 1.4-.9 1.8-.6.7.8-3.2 4.8-4.6 4.8-.5 0-1 .2-1 .4s-.3 1.3-.6 2.3c-.5 1.5-.4 1.6.5.3.8-1.1.9-.7.5 2-.9 4.4-1.4 5.1-1.4 1.7 0-3.9-2-3.3-2.1.5-.1 3.2-.1 3.2-1 .8-.7-1.9-.7-1.6-.3 1.4.4 2.6.1 4.2-.8 4.7-1 .7-1.1 1.2-.1 2.8 1.7 2.7-.7 4.6-4.7 3.7-1.7-.3-3-.2-3 .2s1.7.9 3.7 1c2.1.2 3.9.5 4.2.7.5.6-21.9 1.1-31.8.7-4.5-.2-7.8.2-8.7.9-1.8 1.5-1.9-1.1-.3-5.6 1.4-3.6.4-10.1-1.1-7.5-.5.9-1.2 4.6-1.5 8.4l-.7 6.8 22.5-.7c16.3-.6 22.6-.5 23.1.4.5.8-5.5 1.1-22.8 1.1H123v-5.3c0-2.8-.4-6.7-.9-8.5-.5-1.7-.6-3.2-.1-3.2s1.1 1 1.3 2.2c.4 2.1.4 2.1.6-.3 0-1.4.6-3 1.3-3.7s.8-1.2.2-1.2c-.5 0-1.5.5-2.2 1.2-.8.8-1.2.9-1.2.1 0-1.2 6.3-4.8 17-9.8 3.6-1.7 6.7-3.3 7-3.6.6-.7 14.4-8.2 14.8-8 .1.1 1.2-.5 2.5-1.3 5.7-3.6 44.1-23.6 44.5-23.2.6.7-6 4.6-7.6 4.6-.7 0-1 .4-.7 1 .3.5 0 .7-.8.4s-1.8-.1-2.1.4.3 1.2 1.4 1.5 2 .2 2-.3c0-.4 1.8-1.7 4-2.9 3.6-1.9 4.1-1.9 5.5-.4 1.4 1.3 2 1.4 4.1.3 1.3-.8 2.4-1.8 2.4-2.4 0-1.7-3.7-3.6-5.6-2.9-1.2.4-1.5.3-1-.5.4-.7 1.5-1.2 2.5-1.2.9 0 2.2-.5 2.8-1.1 1.3-1.3 12.6-6.8 13.3-6.5.3.2 2.3 1.1 4.5 2.1M106 208c0 .5-.7 1-1.6 1-.8 0-1.2-.5-.9-1 .3-.6 1-1 1.6-1 .5 0 .9.4.9 1m140.5 7c.3.5-.1 1-.9 1s-1.8-.5-2.1-1c-.3-.6.1-1 .9-1s1.8.4 2.1 1m19.6 9.2c9.3 4.4 16.7 8.3 16.5 8.5-.6.7-34.6-15.4-34.6-16.3s1.9 0 18.1 7.8M214 219c0 .5-.6 1-1.4 1s-1.8-.5-2.1-1c-.3-.6.3-1 1.4-1 1.2 0 2.1.4 2.1 1m51.5 8c.3.5.1 1-.4 1-.6 0-1.1-.5-1.1-1 0-.6.2-1 .4-1 .3 0 .8.4 1.1 1m-73.8 5.4c.4.8 2.2 1.6 3.8 1.9l3 .4-3.2.2c-1.8 0-3.3.5-3.3 1.1 0 .5-1 1-2.2 1-2.3-.1-2.3-.1.2-1.5l2.5-1.4-2.9-.1c-2.4 0-2.7-.2-1.6-1.5 1.6-1.9 2.7-1.9 3.7-.1m88.3 1.2c0 .2-.7.4-1.5.4s-1.5-.4-1.5-1c0-.5.7-.7 1.5-.4.8.4 1.5.8 1.5 1m21.8 7.9c7.1 3.5 11 6 10.6 6.7-.5.8-.1.9 1.1.5 1-.5 3.8.3 6.9 1.7 2.8 1.4 6.8 3.2 8.9 4l3.7 1.5V278l-18.5.1c-10.2.1-19.4.1-20.5.1-3.3 0-4-.2-4-1 0-.4 7.5-.6 16.7-.4 9.3.2 18.7 0 21.1-.3l4.2-.6v-8.4c0-8.4-.5-11.5-2-11.5-.5 0-3.8-1.4-7.3-3-7-3.2-10.5-4-7.3-1.5 1 .7 1.5 1.8 1.2 2.3-.8 1.3 3 2.2 4.2 1 1.3-1.3 3-.2 4.3 2.5.5 1.2 1.7 3.3 2.5 4.7l1.5 2.5-.4-3c-.2-1.7-.2-2.4 0-1.8.3.7.8 1.3 1.1 1.3.4 0 .7 3.1.7 6.8v6.8l-8-.2c-5.6-.2-7.1-.1-5 .5 2.2.6.7.9-5.5.8-7.2 0-7.8-.1-4-.8 2.9-.4 1.4-.5-4.1-.2l-8.6.5-.6-3.7c-.4-2.6-.1-4.5 1.1-6.4 1.6-2.5 1.6-2.5-.1-1.2-1 .8-1.7.9-1.7.3s.9-1.6 2-2.2c2.4-1.3 2.7.2.7 4-.8 1.4-1.1 3.4-.7 4.5.6 1.8.7 1.8 1.4-.1.8-1.9.8-1.9 1.6.1.7 1.9.8 1.9 1.5.1.5-1 .4-2.1-.2-2.5-1.8-1.2-2.3-4.1-.8-4.1.8 0 1.5.8 1.5 1.9 0 1 .6 2.4 1.4 3 1.2 1 1.4.4 1.3-3.6 0-3.3-.3-4.1-.8-2.8-.6 1.7-.8 1.6-.8-.8-.1-1.5-.5-2.7-1.1-2.7-.5 0-1-.7-1-1.6 0-1-.5-1.4-1.6-1-.8.3-1.2.2-.9-.4s.1-1-.4-1c-.6 0-1.1-1.8-1.1-4 0-2.8-.5-4.3-1.9-5.2-1-.6-1.7-1.7-1.4-2.3.6-1.7-2.7-2.8-4.3-1.4-1.1.9-1.4.6-1.4-1.5 0-1.4.5-2.6 1-2.6.6 0 1-.5 1-1.1s-.7-.9-1.5-.5c-.8.3-1.5.1-1.5-.4 0-.6-.7-1-1.6-1-.8 0-1.3-.4-.9-.9.7-1.2 3.4-.1 18.3 7.4m-30.8 2.9c0 .8-.4 1.8-1 2.1-.5.3-1-.3-1-1.4 0-1.2.5-2.1 1-2.1.6 0 1 .6 1 1.4m4.5-.4c.8 1.3-.5 1.3-2.5 0-1.3-.8-1.3-1 .2-1 .9 0 2 .4 2.3 1m15.5 0c0 .5-.4 1-1 1-.5 0-1-.5-1-1 0-.6.5-1 1-1 .6 0 1 .4 1 1m-108.1 4.1c-2.5 1.6-3.2.9-1.3-1.2 1.2-1.3 2-1.6 2.2-.9.3.7-.2 1.6-.9 2.1m37.5-2.2c-1.3 1.2-19.7 2.4-19 1.3.3-.5 1.7-.8 3.1-.7 1.4.2 2.5 0 2.5-.5 0-.4 3.2-.8 7.2-.9 4 0 6.7.3 6.2.8m2.1 9.3c.6.4 0 .8-1.2.8-1.6 0-2.1-.4-1.6-1.5.3-.9.8-1.2 1.2-.8.3.4 1.1 1.1 1.6 1.5m-1.2 3.3c.4.6 1.1.4 1.7-.5.8-1.3 1-1.2 1 .2 0 1-.2 1.8-.4 1.8s-1.1.3-1.9.6c-.9.3-1.7 0-2-.8-.2-.7-.2-.2 0 1.2.3 1.9.2 2.2-.8 1.3-.6-.6-1.3-2.6-1.5-4.3-.4-3-.2-3.1 1.4-1.9.9.8 2 1.8 2.5 2.4m-10.7 4c.7 3.3 1.2 5.4 1.3 4.6s.4-1.2.7-.8c.3.3-.1 2-.9 3.6-1.5 2.9-1.4 3.1.4 3.1 1.1 0 1.7-.4 1.4-1-.3-.5-.1-1.8.5-2.7 1-1.6 1.1-1.5.7.4-.3 1.3-.1 2.3.4 2.3 2.3 0-2.5 4.8-5.1 5.2-1.6.2-2.7 0-2.4-.4 1-1.6 1.1-5.8.2-5.8-.5 0-.7-.8-.3-1.9.3-1-.1-2.4-1-3.1-1.2-1-1.5-1-1.5 0s-.3 1-1.5 0c-1.7-1.4-2-4-.5-4 .6 0 1 .6 1 1.3 0 .8.9 1.3 2.3 1.1 1.2-.1 2.6-.3 3.1-.3 1.4-.2-1.5-3.1-3.1-3.1-.8 0-1.1-.5-.8-1.1.4-.6 1.3-.8 2.1-.5s1.1 0 .7-.9c-.4-1.1-1-1.2-2.3-.5-1 .6-3.1.9-4.7.9-2.7-.2-2.7-.2-.3-.6 1.4-.3 2.9-.9 3.5-1.4.5-.5 1.9-.8 3-.7 1.6.2 2.2 1.5 3.1 6.3m90 .2c-1 1-1.9-.5-1-1.8.6-1.1.8-1.1 1.2 0 .2.7.1 1.5-.2 1.8m-129.4 5.5c-.2 2.1-.8 3.8-1.3 3.8s-.7-.6-.5-1.3c.3-.6.7-2.5 1.1-4.1.8-3.9 1.3-2.9.7 1.6M293 266c0 .5-.4 1-1 1-.5 0-1-.5-1-1 0-.6.5-1 1-1 .6 0 1 .4 1 1m-166.3 4.7c-.3 1-.5.4-.5-1.2 0-1.7.2-2.4.5-1.8.2.7.2 2.1 0 3M222 268c0 .5-.9 1-2 1s-2-.5-2-1c0-.6.9-1 2-1s2 .4 2 1m41.3-.3c-.7.2-1.9.2-2.5 0-.7-.3-.2-.5 1.2-.5s1.9.2 1.3.5m-57.1 1.6c-.7.8-.7 1.8-.2 2.7.6.8.9 2.2.9 3-.1 1.7-2.8-3.8-2.9-5.8 0-.6.7-1.2 1.6-1.2 1.2 0 1.4.3.6 1.3m85.3.7c-.5 1.5-.3 1.8.9 1.4 1.2-.5 1.6 0 1.5 2.2-.1 2.3-.3 2.4-.6.7-.3-1.4-.9-2-1.9-1.6-.7.3-1.1.9-.8 1.4s.1.9-.5.9c-1.2 0-1.1-4.1.2-5.8 1.4-1.8 1.9-1.5 1.2.8m-66.5 0c0 .5-.2 1-.4 1-.3 0-.8-.5-1.1-1-.3-.6-.1-1 .4-1 .6 0 1.1.4 1.1 1m33 .5c0 .8-.2 1.5-.4 1.5s-.6-.7-1-1.5c-.3-.8-.1-1.5.4-1.5.6 0 1 .7 1 1.5m-38 1.1c0 .9-.5 1.4-1.2 1.2-1.8-.6-2.1-2.8-.4-2.8.9 0 1.6.7 1.6 1.6m5 1.5c0 .5-.4.9-1 .9-.5 0-.7.6-.4 1.4s0 1.7-.6 2.1c-1.7 1.1-2.1.2-1.4-3.3.4-2 1.1-2.9 2-2.5.8.3 1.4.9 1.4 1.4m5 1c0 1.1-1.1 1.1-2.9 0-.7-.5-1-1.4-.6-2 .5-.9 1-.9 2.1 0 .8.6 1.4 1.5 1.4 2m-59-.1c0 .5-.4 1-1 1-.5 0-1-.5-1-1 0-.6.5-1 1-1 .6 0 1 .4 1 1m23.3 2c.3 1.1.1 2-.4 2s-.9-.4-.9-.9-.3-1.7-.7-2.7c-.4-1.1-.3-1.5.4-1.1.6.4 1.3 1.6 1.6 2.7m48.5-1.2c.6 1.8-1.5 1.4-2.2-.4-.4-1-.1-1.4.6-1.2.6.2 1.4 1 1.6 1.6m3.7-.8c.3.5.1 1-.4 1-.6 0-1.1-.5-1.1-1 0-.6.2-1 .4-1 .3 0 .8.4 1.1 1m-132.4 14c.7 4.7 2.2 12.1 3.5 16.4 1.3 4.4 2.4 8.1 2.4 8.3s-.9.3-2.1.3c-1.1 0-1.8.4-1.4 1 .3.5 1.2.7 2 .4.9-.4 2.1.9 3.4 3.7 2.5 5 2.4 4.9.9 4.9-.6 0-2 .7-3 1.7-1.7 1.5-1.9 1.5-3.6 0-2.6-2.4-3.5-2.1-5.5 1.3-1.8 2.9-3.7 4-3.7 2 0-.6-.7-1-1.6-1-1.4 0-1.5-.7-1-4 .8-5.1 2.6-8.1 4.6-7.5 1.7.5 6.6-3.2 5.6-4.2-.3-.4-1.2-.1-1.8.5-.7.7-2.3 1.2-3.6 1.2-2.2 0-2.4-.3-1.8-3.3.6-3.3 2.1-14 3.6-26.2.5-3.9 1-7.7 1.1-8.5s.4-.2.5 1.5c.2 1.6.9 6.8 1.5 11.5m103.4-10.9c-.5 1.5-.3 1.7 1.1 1.2 1.2-.4 1.5-.3 1 .5-.4.7-3.1 1.2-6.4 1.1l-5.7-.1 4.5-1.1c3.3-.9 4.5-1.7 4.4-2.9-.1-1 .2-1.5.8-1.2.5.3.6 1.4.3 2.5m11.5 0c0 1.2-2.9 2.4-3.7 1.6-.3-.4-.3-1.3 0-2.1.6-1.6 3.7-1.1 3.7.5m96.7-1.5c-.3.3-1.2.4-1.9.1-.8-.3-.5-.6.6-.6 1.1-.1 1.7.2 1.3.5M171 277c0 .5-.4 1-1 1-.5 0-1-.5-1-1 0-.6.5-1 1-1 .6 0 1 .4 1 1m62 .5c0 .8-.7 1.5-1.5 1.5-1.6 0-2-1.2-.8-2.3 1.1-1.2 2.3-.8 2.3.8m-36.2 2.2c-1 .2-2.6.2-3.5 0-1-.3-.2-.5 1.7-.5s2.7.2 1.8.5m35.2 2c0 .7-.7 1.3-1.5 1.3s-1.5-.5-1.5-1c0-.6-.4-1-1-1-.5 0-1 .7-1 1.5 0 1.7-1.6 2-2.5.5-1.1-1.8.5-2.9 4-2.8 2.2.1 3.5.6 3.5 1.5m4 .3c0 .5-.4 1-.9 1-.6 0-1.3-.5-1.6-1-.3-.6.1-1 .9-1 .9 0 1.6.4 1.6 1m-52.9 3.2c5 1.9 8.4 2.7 8.6 2.1s1.3-.9 2.4-.6c1.9.5 2 1.2 1.7 10.7-.2 7.5-.7 10.4-1.8 11.3-2.2 1.8-3.8 1.6-4.5-.7-.6-1.7-1.5-2-7.6-2-6.8 0-6.9 0-7-2.8-.2-2.3-.2-2.4-.6-.5-.7 3.4-3.1 2.8-4.8-1.3-1.9-4.7-1.9-5.8.3-4.9 1.2.4 1.1.1-.5-1.5-2.8-2.5-2.8-3-.3-8.6 2.5-5.3 3.2-5.4 14.1-1.2m55.8-1.1c-1.1.7-1 .9.3.9 2.7 0 2.9 1.6.2 1.8-1.3.1-2.4-.3-2.4-.9 0-.8-.5-.7-1.5.1-.9.7-1.9.9-2.3.5s-.2-1 .4-1.2 2-1 3-1.7c1-.8 2.3-1.2 2.7-.9.5.3.3.9-.4 1.4M223 284c0 .5-.4 1-1 1-.5 0-1-.5-1-1 0-.6.5-1 1-1 .6 0 1 .4 1 1m8 1.5c0 .9-.6 1.2-1.5.9-.8-.4-1.2-1-.9-1.5.8-1.4 2.4-1 2.4.6m17.3 3c.3.7 2.9 2.7 5.7 4.3 2.9 1.6 5.8 4.1 6.5 5.6 1.9 3.6.1 3.5-5.6-.3-2.4-1.6-4.7-2.7-5.2-2.4-.4.3-.7-.3-.5-1.3.2-1.1-.5-2-1.7-2.3-1.8-.5-2.2-1.6-1.7-4.4.3-1.2 2-.8 2.5.8m97.1 8.2c1 5.4 2 12.1 2.3 14.8.5 5 .4 5.1-2.6 5.3-1.6.1-3.3-.3-3.6-.8-.4-.6-1.6-.8-2.7-.4-1.8.5-2 .3-1.4-1.7 2-7 4.6-19.9 4.6-23.2 0-6.6 1.5-4 3.4 6m-110.1-6.2c-.6 1.8-1.9 1.9-2.9.4-.7-1.2 1.5-3.1 2.8-2.3.4.3.5 1.1.1 1.9m3.7-1.1c0 .8-.4 1.8-1 2.1-.5.3-1-.3-1-1.4 0-1.2.5-2.1 1-2.1.6 0 1 .6 1 1.4m5 0c0 2-1.9 3.1-3.2 1.8-.6-.6-.7-1.5-.4-2.1 1-1.6 3.6-1.3 3.6.3m-96.7 3.3c-.7.2-1.9.2-2.5 0-.7-.3-.2-.5 1.2-.5s1.9.2 1.3.5m91.7 1.8c0 .8-.4 1.5-.9 1.5s-1.4-.7-2.1-1.5c-1-1.3-.9-1.5.9-1.5 1.2 0 2.1.6 2.1 1.5m7.9-.6c.9.6 1 1 .2 1.6-.7.4-1.8.1-2.6-.5-1.1-.9-1.5-.9-1.5-.1 0 .6-.7 1.1-1.5 1.1s-1.5-.7-1.5-1.5c0-1.7 4.6-2.1 6.9-.6m27.7.3c.4.6 0 1.6-.9 2.3-1 .7-1.7 1.7-1.7 2.4 0 1.4-1.9 1.4-4.9-.3l-2.3-1.3 3.1-.6c1.7-.4 3.4-1.3 3.7-2.2.7-1.8 2-1.9 3-.3m-23.4 6c-1.5 1.5-2.6.4-1.8-1.8.5-1.3.9-1.5 1.8-.6s.9 1.5 0 2.4M147.5 299c.3.6-.4 1-1.7 1-1.8 0-2-.2-.8-1 1.9-1.2 1.8-1.2 2.5 0m100.5 0c0 .5-.9 1.4-2 2-1.7.9-2 .8-2-1 0-1.3.7-2 2-2 1.1 0 2 .4 2 1m7 .5c1 1.2 1 1.5-.4 1.5-.9 0-1.6-.7-1.6-1.5s.2-1.5.4-1.5.9.7 1.6 1.5m-20.8 1.1c2.4.9 5.7 2.2 7.5 3 1.7.8 3.6 1.4 4.2 1.4s2.9 1.6 5.1 3.6c4.2 3.8 5.4 7.1 2.3 6.1-1-.3-5.8-1.9-10.8-3.6-4.9-1.6-11.6-3.7-14.7-4.6-3.2-.8-5.8-2-5.8-2.5 0-1 5.8-5 7.2-5 .4 0 2.7.7 5 1.6M163 303c0 .5-1.6 1-3.6 1-2.1 0-3.3-.4-2.9-1 .3-.6 1.9-1 3.6-1 1.6 0 2.9.4 2.9 1m88 1c0 1.1-.4 2-1 2-.5 0-1-.9-1-2s.5-2 1-2c.6 0 1 .9 1 2m4-.5c0 .8-.7 1.5-1.5 1.5s-1.5-.7-1.5-1.5.7-1.5 1.5-1.5 1.5.7 1.5 1.5m5 0c1.1 1.3.8 1.5-1.4 1.5-1.6 0-2.6-.5-2.6-1.5 0-.8.6-1.5 1.4-1.5.7 0 1.9.7 2.6 1.5M102 305c0 .5-.4 1-1 1-.5 0-1-.5-1-1 0-.6.5-1 1-1 .6 0 1 .4 1 1m172.4.2c-.7 1.1-4.1 1-4.9-.1-.3-.5.8-.9 2.4-.9 1.7.1 2.8.5 2.5 1m-44.5 3.8c23.3 7.4 26.5 8.6 26.8 9.5.2.6-1.2 1.9-3.1 2.9l-3.3 1.8-9.4-3.5c-5.2-2-13.6-4.5-18.6-5.7-5.1-1.2-9.3-2.5-9.3-3 0-1.1 4.9-5 6.3-5 .6 0 5.4 1.4 10.6 3m37.1.4c0 .6-.5.5-1.2-.2-.8-.8-1.5-.9-2.5 0-1.8 1.5-2.9.2-1.4-1.6 1-1.2 1.6-1.3 3.2-.3 1 .6 1.9 1.6 1.9 2.1m-12-1.4c0 .5-.4 1-1 1-.5 0-1-.5-1-1 0-.6.5-1 1-1 .6 0 1 .4 1 1m5 .5c0 .8-.9 1.5-2 1.5s-2-.7-2-1.5.9-1.5 2-1.5 2 .7 2 1.5m-1 4.1c0 .8-.4 1.2-1 .9-.5-.3-1-1-1-1.6 0-.5.5-.9 1-.9.6 0 1 .7 1 1.6m5.8-.4c-.3.7-1.1 1.3-1.8 1.3s-1.5-.6-1.7-1.3c-.3-.7.4-1.2 1.7-1.2s2 .5 1.8 1.2m5.2-.2c0 .5-.4 1-.9 1-.6 0-1.3-.5-1.6-1-.3-.6.1-1 .9-1 .9 0 1.6.4 1.6 1m3 1c0 .5-.4 1-1 1-.5 0-1-.5-1-1 0-.6.5-1 1-1 .6 0 1 .4 1 1m-9.2 3.7c-.5 2.5-2.8 2.8-2.8.4 0-1.2.6-2.1 1.6-2.1.9 0 1.4.7 1.2 1.7m13.7-.7c.3.5-.1 1-.9 1s-1.8-.5-2.1-1c-.3-.6.1-1 .9-1s1.8.4 2.1 1m63.9 2.5c1.4 1.1 2.3 1.2 3.3.4 2.2-1.9 4.4.8 4.1 5.1-.1 2 .5 5.2 1.4 7.1.8 1.9 1.8 5.1 2.1 7.2.5 3.1.3 3.8-.8 3.3-.8-.3-1.5-.1-1.5.5 0 .5.7 1.2 1.4 1.5.8.3 2 3.1 2.7 6.2 2 10 2.9 12.2 5 12.2 1 0 1.9.4 1.9 1 0 .5-.4 1-1 1-.5 0-1 .5-1 1.2 0 .9.3.9 1.2 0 2-2 4-1.4 3.7 1-.2 1.3.6 3.6 1.6 5.2 1.8 2.6 2.5 7.5 2.6 17.6.1 1.4.6 3.1 1.1 3.8.6.7.9 1.4.7 1.6s-5.4.7-11.6 1.1c-11 .7-11.2.7-10.6-1.4.4-1.6.2-2-1-1.6-2.6 1.1-4.5-5.9-2.1-8.2.7-.7 2-1.3 3-1.3.9 0 3.2-.9 5-2.1 2.8-1.7 3.4-2.7 3.4-5.4 0-1.9.5-3.7 1-4 .6-.4.8-1.1.5-1.6-.4-.5-1.3-.2-2.1.6-1.4 1.3-1.8 1.3-3.7 0-3.3-2.3-12.3-2-14.4.5-2.4 2.7-3.3 2.5-3.3-.8 0-1.5-.5-3.3-1.1-3.9-.8-.8-.3-2.2 1.6-5.2 3.1-4.6 4-5 4.8-2 .4 1.4 1.2 1.9 2.5 1.7 1.1-.2 3 .6 4.2 1.7 2.3 2 4.9 1.3 5.8-1.6.4-1-.1-.9-1.6.4-1.9 1.8-2 1.8-3.4-.1-.7-1.1-2.2-2.1-3.2-2.3-2.3-.5-3.4-2.9-1.3-2.9 1.6 0 4.7-4.1 4.7-6.3 0-3-6.9-7-14.3-8.4-3.8-.7-6.3 1.8-7.1 7.2-.4 2.4-1.6 5.5-2.7 6.8-2.5 3.3-2.5 4.5.1 2.2 1.1-1 2.1-1.6 2.3-1.4.1.2 1.2 2.5 2.5 5.1 1.2 2.7 2.7 4.8 3.3 4.8.8 0 .8.4-.1 1.5-1 1.2-1 1.5.4 1.5 1.1 0 1.6.9 1.6 2.9 0 1.7.5 3.3 1 3.6.7.4.6 1.3-.1 2.6-1.8 3.4 1.9 7.6 6.2 7.1.3-.1 1.2 1.8 1.9 4.1.6 2.3 1.6 4.7 2.1 5.3.6.8 0 1-1.9.9-1.5-.1-5.1-.3-8-.3-4.3-.2-5.7-.7-7.7-2.8-1.4-1.5-2.5-3.9-2.5-5.4s-.6-3.3-1.4-3.9c-1.2-1-1.1-1.8 1-4.8 2.7-4 3-5.3 1.2-5.3-.7 0-3.7-1.8-6.7-4.1-6.3-4.8-9.6-4.7-11.4.1-.6 1.7-1.7 3-2.3 3-1.9 0-2.4 6.3-.6 8.3 1.4 1.6 1.3 1.9-.9 4.3-2.2 2.3-2.4 2.4-3.6.8-1.1-1.6-1.4-1.6-3.7 0-3.4 2.2-3.6 2.1-3.6-1.3 0-3.6-.9-6.1-2.2-6.1-.5 0-.7 1.3-.4 3 .3 1.6.9 4.4 1.2 6 .7 3.5 3.9 4.2 4.9 1 .9-2.7 2.4-2.5 3.5.6 1.2 3 2.4 2.5 4.6-1.9l1.7-3.1 1.8 2.3c1.1 1.3 1.9 3.2 1.9 4.2s.4 1.9.9 1.9c1.1 0 .8-4.6-.2-5.7-1.3-1.2-.7-2.9 1.1-2.9.9 0 2.7-.4 4-.8 2.7-.9 2.9.6.4 4.2-3 4.3-3.4 5.2-2.3 5.2.6 0 2.2-2 3.7-4.5 1.4-2.5 2.9-4.5 3.4-4.5.4 0 1 1.5 1.2 3.2.3 1.8.8 4 1.2 5 .6 1.4-.1 1.7-5.6 2-3.5.2-9 0-12.3-.4-14.3-1.7-23.4-3.2-22.7-3.7 1.3-.9 2.2-4.1 1.2-4.1-.5 0-1.2.4-1.5 1-1.1 1.8-2.4 1-2.7-1.7-.4-3.8-2-3.8-6.1.2-2 1.9-4.3 3.5-5.2 3.5-2.3 0-6.5 4.5-6.5 7 0 1.1-.4 2.8-.9 3.8-.5.9-1.4 4.8-2 8.6-.5 3.7-1.2 7-1.5 7.3-.2.3-5.8 1-12.3 1.6-8.7.8-14.8.7-23.3-.1-19.3-2-21.8-3.6-16.5-10.6 1.4-1.8 2.5-3.9 2.5-4.7s.7-2.3 1.5-3.3c1.4-1.8 1.5-1.7 1.5 2.5 0 2.4.3 5.4.6 6.7.5 1.8.1 2.4-2.5 3.3-3.2 1.1-4.2 2.9-1.6 2.9.8 0 1.5-.5 1.5-1 0-.6 1.1-1 2.4-1s2.7-.7 3-1.6c1-2.5.7-5.4-.5-5.4-1.4 0-.2-8.9 1.4-10.9.6-.7 1.6-2.2 2.2-3.4 1.4-2.8 3.4-3.3 4.1-1 .3 1 1.2 3.2 2.1 5s1.3 4 .9 4.9c-.7 1.7-.6 1.7 1.3 0 2.5-2.3 3-1.3 2.3 5.7-.3 4.3-.9 6-2.3 6.8-1.1.5-1.9 1.7-1.9 2.6 0 1.4.2 1.5 1.8.1.9-.9 2.2-1.4 2.8-1.1.6.2 1.4-.5 1.7-1.7.5-2 2.7-2.9 2.7-1 0 .5.7 1 1.5 1s1.5-.7 1.5-1.5c0-1.4-1.7-2-4.7-1.6-.9.1-1.2-2.1-1.1-7.6 0-6.2.5-8.3 2.2-10.6 1.4-1.9 2.7-2.7 4-2.3 1.1.3 2.6 0 3.3-.6.8-.6 1.6-.8 1.9-.5s2.1-.1 4-.9c3.1-1.3 3.7-1.3 5.7.1 2.7 1.9 3.7 1.9 3.7.1 0-1.7 2.2-2.6 6.2-2.6 1.6 0 4.4-.6 6.1-1.4 17.9-8 22.1-9.5 23.4-8.4 1 .8 1.8.6 3.4-.7 1.1-1.1 1.8-2.4 1.5-3.1s0-1.4.7-1.7c1.3-.4 3.7 1.6 3.7 3.2 0 .6.5 1.1 1.1 1.1 1.2 0 .2-4.2-1.3-5.1-.9-.6 1-2.1 6.4-5.4.9-.6 3-2.1 4.7-3.3l3.1-2.4 1.1 3.2c.9 2.3 1.7 3 3.2 2.8 1.1-.2 2.2-.8 2.4-1.5.3-.7-.3-.9-1.6-.6-1.5.4-2.1.1-2.1-1 0-.9-.7-2.3-1.6-3.2-1.6-1.5-1.3-2.1 3.9-7.3 3.1-3.1 6.8-7.9 8.2-10.5 1.4-2.7 3.9-6 5.5-7.4 3.7-3.1 5.8-6.6 3.5-5.7-.8.4-1.5 1.1-1.5 1.7s-.3.8-.6.5c-.7-.8 2.4-8 3.9-9 1.6-1 1.9-1 4.1.7m-49.9.5c-.3.5-1.7 1-3.1 1s-2.2-.4-1.9-1 1.7-1 3.1-1 2.2.4 1.9 1m-22.5 2c0 .9-4.2 2.2-4.8 1.5-.3-.3.1-1.1.7-1.9 1.2-1.4 4.1-1.2 4.1.4m3.8.9c.3.8-.1 1.2-.9.9-.7-.2-1.5-1-1.7-1.7-.3-.8.1-1.2.9-.9.7.2 1.5 1 1.7 1.7m-3.8 3.3c0 1.3-2.3.5-2.8-1-.2-.7.2-1 1.2-.6.9.3 1.6 1.1 1.6 1.6m9 .9c0 .5-.7.9-1.5.9-.9 0-1.5-.9-1.5-2.1 0-1.8.2-1.9 1.5-.9.8.7 1.5 1.6 1.5 2.1m10.4-1c-.8 1.4-2.4 1-2.4-.6 0-.9.6-1.2 1.5-.9.8.4 1.2 1 .9 1.5m-88.3 2.3c4.6 1.8 10 3.7 11.9 4.1s4 1.1 4.6 1.6 2.8 1.5 4.9 2.2l3.9 1.4-7.5 3c-10 4.2-18.2 6.7-32.1 9.8-13 2.9-20.1 3-20.6.3-.4-2.2 9.7-17 11-16.2.6.4.7 2.3.4 4.6l-.6 4 4.7-.3c4.1-.3 4.8 0 5.1 1.6.2 1.1.7 2.3 1.1 2.8.7.7 13.7-1.5 14.7-2.6.3-.3-1.3-.8-3.5-1.2s-4.5-1.2-5-1.9c-1.1-1.3-2.8-16.6-1.9-16.6.2 0 4.2 1.5 8.9 3.4m72.9-1.9c0 .8-.7 1.5-1.5 1.5s-1.5-.7-1.5-1.5.7-1.5 1.5-1.5 1.5.7 1.5 1.5m36 1.5c0 .5-1.4 1-3.1 1s-2.8-.4-2.4-1c.3-.6 1.7-1 3.1-1 1.3 0 2.4.4 2.4 1m-21.3 2.2c-.3.8-.6.5-.6-.6-.1-1.1.2-1.7.5-1.3.3.3.4 1.2.1 1.9m3.3-1.2c0 .5-.5 1-1.1 1-.5 0-.7-.5-.4-1 .3-.6.8-1 1.1-1 .2 0 .4.4.4 1m-54.5 1c.4.6-.5 1-1.9 1s-2.6-.5-2.6-1c0-.6.9-1 1.9-1 1.1 0 2.3.4 2.6 1m36.2.5c.8 2.2-.6 3.3-1.7 1.5-1.3-2-1.2-3 0-3 .6 0 1.3.7 1.7 1.5m4.3.5c0 1.3-.5 1.8-1.5 1.4-.8-.4-1.5-1.2-1.5-2s.7-1.4 1.5-1.4 1.5.9 1.5 2m4 .1c0 .5-.4.9-1 .9-.5 0-1-.7-1-1.6 0-.8.5-1.2 1-.9.6.3 1 1 1 1.6m-95.2 4.1c1.2 4.2.7 5.1-1.9 3.7-1.3-.6-1.9-2.1-1.9-4.3 0-6 2.1-5.7 3.8.6M267 331c0 .5-.7 1-1.5 1s-1.5-.5-1.5-1c0-.6.7-1 1.5-1s1.5.4 1.5 1m29 .5c0 .8-.7 1.5-1.5 1.5-1.6 0-2-1.2-.8-2.3 1.1-1.2 2.3-.8 2.3.8m-4 1c0 .8-.4 1.5-1 1.5-.5 0-1-.7-1-1.5s.5-1.5 1-1.5c.6 0 1 .7 1 1.5m-11.8 2.7c-1.5 1.5-2.6.4-1.8-1.8.5-1.3.9-1.5 1.8-.6s.9 1.5 0 2.4m3.8-.6c0 .8-.4 1.4-1 1.4-.5 0-1-.9-1-2.1 0-1.1.5-1.7 1-1.4.6.3 1 1.3 1 2.1m-56.6-.4c-.3.4-1.4.8-2.5.8s-1.8-.4-1.5-.8c.2-.4 1.4-.8 2.5-.8s1.7.4 1.5.8m49.4.7c.3.8-.1 1.2-.9.9-.7-.2-1.5-1-1.7-1.7-.3-.8.1-1.2.9-.9.7.2 1.5 1 1.7 1.7m25.2-.9c.8.5 1.1 1.2.7 1.7-.5.4-1.2.1-1.7-.7-.8-1.3-1-1.2-1 .2 0 1-.7 1.8-1.5 1.8s-1.5-.6-1.5-1.3c0-2.7 2.3-3.5 5-1.7m-6 2.1c0 .5-.7.9-1.5.9-1.5 0-2-1.2-.9-2.3.8-.8 2.4.1 2.4 1.4M94.5 336c.3.5-.1 1-1 1s-1.3-.5-1-1c.3-.6.8-1 1-1s.7.4 1 1m173.5 0c0 .5-.4 1-1 1-.5 0-1-.5-1-1 0-.6.5-1 1-1 .6 0 1 .4 1 1m24 .3c0 .7-.9 1.3-2.1 1.4-1.7.2-1.8-.1-.9-1.3 1.5-1.7 3-1.8 3-.1m14 .7c.8.5 1.1 1.2.7 1.7-.5.4-1.2.2-1.6-.6-.7-1-1-.9-1.4.3-.4.9-1.1 1.6-1.7 1.6-1.4 0-1.3-2.7.3-3.3 1.8-.8 2.1-.8 3.7.3m-26.4 3.7c-1.1 1.1-1.9-.6-1.1-2.4.8-1.7.8-1.7 1.2 0 .3 1 .2 2.1-.1 2.4m5.2-2.5c-.7 1.9-3.8 2.2-3.8.4 0-1 .9-1.6 2.1-1.6s1.9.5 1.7 1.2m15.2 1.3c0 .8-.7 1.5-1.5 1.5s-1.5-.7-1.5-1.5.7-1.5 1.5-1.5 1.5.7 1.5 1.5m-28.2.6c-.2.6-.8 1-1.3 1s-1.1-.4-1.3-1 .4-1.1 1.3-1.1 1.5.5 1.3 1.1m24.2 1.6c0 2.6-.1 2.6-1.5.7-1.9-2.5-1.9-3.4 0-3.4 1 0 1.5 1 1.5 2.7m-18.9 0c1.3 1.6 1.2 1.7-.3.4-1.7-1.3-2.2-2.1-1.4-2.1.2 0 1 .8 1.7 1.7m10.9 1.7c-1.4 1.4-2.4 0-1.6-2.1.6-1.5.8-1.5 1.6-.3.6.9.5 1.9 0 2.4m20-1.9c0 .8-.4 1.5-1 1.5-.5 0-1-.7-1-1.5s.5-1.5 1-1.5c.6 0 1 .7 1 1.5m4-.5c0 .5-.4 1-1 1-.5 0-1-.5-1-1 0-.6.5-1 1-1 .6 0 1 .4 1 1m-8 1.5c0 .8-.4 1.5-1 1.5-.5 0-1-.7-1-1.5s.5-1.5 1-1.5c.6 0 1 .7 1 1.5m-20.3.7c-.2.7-1.2 1.2-2.1 1.1-1.2-.1-1.5.4-1.1 1.4.4 1.3.3 1.4-1 .3-1.4-1.1-1.3-1.4.2-2.6 2.3-1.7 4.6-1.8 4-.2m9.7.4c.3.8.2 1.2-.4.9s-1-1-1-1.6c0-1.4.7-1.1 1.4.7m7.1-.7c.7 1.2-1.2 2.4-2.5 1.6-1.1-.7-.4-2.5 1-2.5.5 0 1.1.4 1.5.9M312 344c0 .5-.5 1-1.1 1-.5 0-.7-.5-.4-1 .3-.6.8-1 1.1-1 .2 0 .4.4.4 1m-187.2 1.4c1.2.4 2.7 1.6 3.3 2.8.9 1.6.6 2.4-1.2 4.4-2.2 2.3-3.4 2.4-3.4.1 0-1.6-10.6-2.9-12.2-1.5-2.8 2.3-4.6-2.7-1.9-5.5 1.5-1.4 11.1-1.7 15.4-.3M248 345c0 .5-.7 1-1.5 1s-1.5-.5-1.5-1c0-.6.7-1 1.5-1s1.5.4 1.5 1m61 1c0 1.1-.7 2-1.5 2-1.5 0-2.1-2.1-.8-3.3 1.2-1.3 2.3-.7 2.3 1.3m30.8.4c2.3 1 4.2 2.3 4.2 2.8 0 .6-.7.7-1.7.2-3.5-1.5-7.7-1-8.1 1-.3 1.5 0 1.8 1.6 1.4 1.9-.5 5.2.7 5.2 2 0 .4-1 .7-2.2.8-1.3.1-3.6.4-5.3.8-1.9.5-3.6.3-4.8-.6-1.7-1.3-1.7-1.5.2-6.1 2.3-5.3 3.1-5.5 10.9-2.3m-66.1.8c-.3.8-.6.5-.6-.6-.1-1.1.2-1.7.5-1.3.3.3.4 1.2.1 1.9m14.3-1.3c0 2.1-1.3 4.1-2.6 4.1-.8 0-1.4-.5-1.4-1 0-.6.5-1 1-1 .6 0 1-.7 1-1.5s.5-1.5 1-1.5c.6 0 1 .4 1 .9m4.4.6c.3.9 0 1.5-.9 1.5-.8 0-1.5-.7-1.5-1.5s.4-1.5.9-1.5 1.1.7 1.5 1.5m12.6.5c0 .5-.4 1-.9 1-.6 0-1.3-.5-1.6-1-.3-.6.1-1 .9-1 .9 0 1.6.4 1.6 1m-71 2.9c0 1.1-3.9 2.5-4.7 1.8-.3-.3-.2-1 .2-1.6.8-1.3 4.5-1.5 4.5-.2m62 .6c0 .8-.4 1.5-1 1.5-.5 0-1-.7-1-1.5s.5-1.5 1-1.5c.6 0 1 .7 1 1.5m-3 .5c0 1.2-2.8 2.5-3.6 1.7-.9-.9.6-2.7 2.2-2.7.8 0 1.4.5 1.4 1m8 2.9c0 .5-.7 1.4-1.5 2.1-1.3 1-1.5.9-1.5-.9 0-1.2.6-2.1 1.5-2.1.8 0 1.5.4 1.5.9m-73.6 1.6c5.9.8 7.3 1.6 5.9 3.7-.4.7-.6 2-.5 2.9.3 1.6-3.3 2.9-8.2 2.9-1.1 0-2.7.4-3.5.9-1.2.8-1.2 1.2-.2 2.5.9 1.1 3.6 1.6 9.4 1.8 5.3.2 8.2.7 8.5 1.5.6 2.1-16.2 1.7-19.4-.3-1.9-1.3-3.9-1.6-8.9-1.1-6.4.6-9.7-.5-5-1.7 3-.8 3.2-3.1.4-4.6-3.3-1.8-1.4-2.5 6.9-2.5 6.2 0 7.7-.3 7.7-1.5 0-.8-1-1.9-2.2-2.5-1.3-.5-2.3-1.3-2.3-1.7 0-.8 3.1-1.7 4.6-1.3.6.2 3.6.6 6.8 1m63.7 1.3c-.6.2-.8.9-.4 1.5.4.7-.1.5-1.1-.2-1.7-1.4-1.7-1.6 0-2.8 1.5-1.1 2-1.1 2.3-.1.2.6-.1 1.4-.8 1.6m4.9-1.8c0 .5-.7 1-1.6 1-.8 0-1.2-.5-.9-1 .3-.6 1-1 1.6-1 .5 0 .9.4.9 1m-247.7 2.4c3.4 1.4 7 5 8 7.9.8 2.3-2.5 5.7-5.6 5.7-3 0-3.8.9-2.8 2.9 1.6 3.1 2.2 7.1 1 7.1-1.6 0-19.3-8.3-20.1-9.5-.5-.5-1.2-2.5-1.8-4.4-1.1-3.9.7-8 4.4-9.8 3.1-1.5 13.2-1.5 16.9.1m127.7-.7c-.1 1.8-1.8 3.5-2.4 2.4-.4-.6-.4-1.6-.1-2.1.7-1.2 2.5-1.3 2.5-.3m37.5.3c.3.6-.1 1.3-1 1.6-1.9.8-3 0-2-1.5.8-1.4 2.2-1.4 3-.1m63.5.1c0 .6-2.4 1.9-3.6 1.9-.2 0-.4-.6-.4-1.4 0-.9.9-1.4 2-1.3s2 .4 2 .8m150.4.3c6.4 2.7 9.4 9.7 6.6 15.8-.7 1.4-4.3 3.9-9.1 6.4l-8 4.1.6-3.1c.4-1.7.9-3.9 1.2-4.9.4-1.6.1-1.8-1.9-1-7.1 2.5-17.6-1.4-16.2-6 1.7-5.8 12.4-12.7 19.7-12.7 2.1 0 5.2.6 7.1 1.4m-131.9 1.5c-.3.6-1.4 1.1-2.3 1.1-1.5-.1-1.5-.2.2-1.5 2.1-1.6 3.2-1.3 2.1.4m-13.5.1c0 .5-.5 1-1.1 1-.5 0-.7-.5-.4-1 .3-.6.8-1 1.1-1 .2 0 .4.4.4 1m52 .2c0 1.1-2.9 3.7-4.1 3.8-.7 0-1.9-3.7-1.4-4.2.9-.8 5.5-.5 5.5.4m-51 3.2c0 1.1-1.9 1.5-2.5.6-.3-.5.1-1 .9-1 .9 0 1.6.2 1.6.4m-26 5c0 .3-.4.8-1 1.1-.5.3-1 .1-1-.4 0-.6.5-1.1 1-1.1.6 0 1 .2 1 .4m-170.2 2.8c3.9 1.1 4 2.7.6 6.7-2.7 3.3-6 3.9-9.5 2-1.5-.7-2.4-.7-3.5.2-2 1.6-1.9-.9.1-3.8.9-1.2 1.4-2.7 1.3-3.4-.4-1.6 4.3-4.1 6.2-3.3.8.3 3 1 4.8 1.6m232.6 3.3 3 2.7-2.8 1.5c-2.9 1.5-3.2 1.5-8.1-1.6-2.2-1.3-2.9-2.5-2.7-4.2.5-4.7 4.5-4.1 10.6 1.6m-257.6 4.2c1.7 4.2 3 7.8 2.8 8-.1.2-2.7-.5-5.6-1.5-4.7-1.6-5.6-2.4-7.1-6l-1.8-4.1 3.7-1.9c2-1.1 3.9-2 4.2-2.1.3 0 2 3.4 3.8 7.6m286.1-5.6c3.9 1.4 4 2.6.1 3.4-2.3.5-3 1.2-3 3 0 3-2.2 4.7-5.7 4.3-2.6-.3-2.8-.6-2.5-4.3.6-6.9 4-8.9 11.1-6.4m32.3 1.1c2.6 1.2 4.8 2.7 4.8 3.4 0 .8-.6 1.1-1.2.9-.7-.3-2.6-.1-4.3.3-2.1.6-3 1.5-3 2.9 0 3-1 3.6-4.1 2.9-2.5-.7-2.6-.9-1.9-5.3 1.2-8.4 1.8-8.7 9.7-5.1m29.8 4.6 5.1.5-.7 3.1c-.3 1.7-.9 3.4-1.3 3.8-.9.9-14.5 4.8-16.9 4.8-1.8 0-2-.3-1.2-2.8.5-1.5 1.6-5.3 2.5-8.5l1.6-5.7 2.9 2.1c1.7 1.3 5 2.4 8 2.7M217 375c0 .5-.4 1-.9 1-.6 0-1.3-.5-1.6-1-.3-.6.1-1 .9-1 .9 0 1.6.4 1.6 1m-176 5.5c33.7 14.5 67.1 20.3 101.2 17.7 14.1-1.1 30.2-3.6 38.8-6.2 5.9-1.7 11.8-1.3 13 .9 1.8 3.5 1.1 4.9-4.2 8.1-2.9 1.8-5.5 3.4-5.8 3.7-.2.2-.3 3.3-.2 6.8.4 7.5 1.9 6.7-17.4 9.4-49.7 7.1-86.9 3.8-115.4-10.2-5.8-2.9-6.9-3.9-10.3-9.7-3.5-6.1-8.5-17.4-10.2-22.9-.6-1.8-.4-2.3.6-1.8.8.3 5.2 2.2 9.9 4.2m385.6 9.2c-5.8 11.4-12.4 22.1-14.7 23.9s-15.7 6.1-25.9 8.2c-23 4.9-44.7 5.3-80.5 1.3-9.9-1.2-20.5-2.3-23.5-2.7-3-.3-5.8-.8-6.1-1-.4-.2.1-2.9.9-6l1.6-5.7-3.1-2.6c-1.7-1.4-4.6-3.5-6.4-4.6-4.3-2.7-5.7-5-4.3-7.2 1.6-2.4 7.6-2.2 34.9 1.3 18.9 2.4 25.6 2.8 48 2.8 27.8.1 32.1-.4 52.7-5.5 8.1-2 14.6-4.4 21-7.8 5.1-2.6 9.7-4.9 10.1-5 .4 0-1.7 4.7-4.7 10.6m-226.5-5.6c4.7 1.6 6.8 3.6 7.5 7.4.6 3.3-1.2 8.1-4.4 11.7-2 2.4-3.2 1.4-3.2-2.8s-3.6-10-7.2-11.5c-2.3-.9-2.5-1.3-1.3-2.5 1.5-1.6 3.5-1.9 3.5-.5 0 .4 1 2 2.1 3.5l2.1 2.7 2.4-2.2c2.8-2.6 3.3-5 .6-2.6-2.5 2.3-3.7 2.1-5-.8-1.9-4-1.9-4 2.9-2.4m76.9 1.4c0 1.4-.4 2.5-1 2.5-1.1 0-1.4-3.3-.3-4.3 1.1-1.1 1.3-.8 1.3 1.8m-61 1c0 1.7-3.2 6.5-4.4 6.5-.7 0-1.7-1.6-2.3-3.5l-1.1-3.5h3.9c2.1 0 3.9.2 3.9.5m15 1.3c0 .4-1.4 2.3-3.1 4.1l-3 3.4-1.5-2.8c-2.2-4.3-1.8-5.3 2.4-5.7 4-.4 5.2-.1 5.2 1m-33.2 17.3c1.9 8 1.9 8-3 6.3-6.2-2.1-8.9-3.6-8.5-4.8.3-1 8.4-6.3 9.8-6.5.3-.1 1.1 2.2 1.7 5m72.9-.4c3.2 2.1 5 3.8 4.7 4.7-.5 1.4-5 2.9-11.8 4.2l-3.9.7.7-3.4c1.6-7.9 2.7-11 3.9-10.2.7.4 3.5 2.2 6.4 4m-62 12.3c18.3 3.2 42.4 2.3 60-2.2 2.4-.6 4.6-.8 4.9-.5.7.7-3.2 12.8-5.7 17.9-1.6 3.1-2.6 3.8-6.6 4.6-13.5 2.9-19.2 3.5-34.8 3.5-19.7 0-31.4-1.9-34-5.7-3-4.1-6.3-17.9-5.6-22.8.1-.3 2.4.3 5.2 1.3 2.8 1.1 10.3 2.9 16.6 3.9"/><path d="M266 148c0 .5-1 1-2.3 1-3.2 0-4.7 1.8-4.7 5.6 0 2.6.9 4 4.9 7.3 5.5 4.6 8.4 5.1 10.5 1.8 2.1-3.1 1.6-12-.9-14.6-1.8-2.1-7.5-2.9-7.5-1.1m7 9.2c0 6.2-1.7 7-6.9 2.9-4.2-3.4-5.6-6.4-3.6-8.1 1-.8 1.8-.1 3.6 3.5 1.2 2.5 2.8 4.5 3.6 4.5 1.7 0 1.7.2-.8-4.9-1.7-3.5-1.8-4.5-.8-5.2 2.5-1.5 4.9 2 4.9 7.3M288.6 150c-2.7 3.3-5.1 10.3-4.2 12.6 1.3 3.3 13.1.9 17-3.4 1.8-2.1 1.8-2.2-.3-5.5-2.3-3.7-6.1-6.7-8.5-6.7-.8 0-2.6 1.4-4 3m8.4 2.8c3.6 3.1 3.3 5.8-.7 7.3-4.9 1.8-5.5 1.1-2.8-2.8 3-4.5 1.3-6.1-2-1.9-2.5 3.1-3.5 3.3-3.5.6 0-2.1 3.3-6 5-6 .5 0 2.4 1.2 4 2.8M251.3 166.7c-1.7 1.4-2.3 3.1-2.5 7.3-.3 5.1-.1 5.5 2.5 6.8 2.4 1.1 3.4 1.1 7.5-.2 10.2-3.4 11.6-7 4.7-11.8-5.4-3.8-9.5-4.5-12.2-2.1m12 5.1c2.7 2.3 2.1 3.5-2.7 5.5-5.7 2.4-9 2-9.4-1.1-.3-2.2-.1-2.3 4-1.7 3.1.4 4.9.2 6.3-.9 1.9-1.4 1.6-1.5-3.7-1.6-4.4 0-5.8-.4-5.8-1.5 0-.7.8-1.8 1.7-2.4 1.8-1 6.1.7 9.6 3.7M295.3 170c-6 2.7-6 5.9 0 9.5 8.9 5.2 17.5 2.1 15.8-5.6-.5-2-1.1-4.2-1.5-4.8-1.1-1.8-9.7-1.2-14.3.9m12.1.9c.4.5-1.6 1.5-4.4 2.2-6.5 1.7-6.5 3.3 0 2.7 5.8-.6 7.1.4 3.7 2.6-1.8 1.2-3 1.3-5.7.6-4.6-1.4-7.4-3.6-6.7-5.3.9-2.4 12-4.7 13.1-2.8M265.5 183.9c-6.8 4-7.6 6.1-3.8 10.9 3.8 4.7 6.3 5.1 10.2 1.5 5.3-4.8 5.4-15.4.2-15.3-.9.1-3.8 1.4-6.6 2.9m8.7.7c1.1 1-2.4 9.4-4.5 10.9-1.8 1.3-2.4 1.3-3.5.1-1.1-1.1-.8-1.8 1.7-4.4 3-2.9 4-5.2 2.3-5.2-.5 0-2.1 1.3-3.7 3-3.2 3.3-4.5 3.8-4.5 1.5 0-3 10.2-7.9 12.2-5.9M285.1 183.6c-3.8 4.8-2.2 14.8 2.6 16 3.8 1 9.2-.5 10.7-2.9 2.9-4.5.6-8.3-8.5-14.1-2.6-1.6-2.7-1.6-4.8 1m6.5 2.9c4.1 3.2 5.7 5.9 4.9 8.6-.5 1.6-1 1.8-2.1.8-.8-.6-1.4-1.7-1.4-2.4 0-1.8-3.7-6.1-4.5-5.3-.4.4 0 2.1.9 3.9 2.1 4.1 2 4.9-.2 4.9-1.8 0-4.2-3.7-4.2-6.3 0-1.5 2.3-6.7 2.9-6.7.2 0 1.9 1.1 3.7 2.5M271.7 110.8c-.5.7 2.7 5.2 3.7 5.2.4 0 0-1.4-.9-3-1.6-3.1-2.1-3.5-2.8-2.2M233.5 108c.3.5.8 1 1.1 1 .2 0 .4-.5.4-1 0-.6-.5-1-1.1-1-.5 0-.7.4-.4 1M194 115c0 .5.5 1 1 1 .6 0 1-.5 1-1 0-.6-.4-1-1-1-.5 0-1 .4-1 1M162.3 169c-3.6 2.1-6 8.2-5 12.2 1.7 6.7 8.9 10.7 15.7 8.8 4.3-1.2 5.2-1.8 7.3-5 3.5-5.1.8-14.9-4.9-17-4-1.6-9.6-1.2-13.1 1m11.5 6.2c.7.7 1.2 2.4 1.2 3.8 0 3.4-1.7 5-5.3 5-3.3 0-5.6-2.3-5.7-5.6 0-2.8 1.9-4.4 5.5-4.4 1.7 0 3.6.5 4.3 1.2M225 209c0 .5-.3.9-.7.8-.5-.1-2.5.7-4.6 1.7-3.1 1.6-3.5 2-2.1 2.8.9.5 1.9.6 2.3.1.3-.5 1.5-1.6 2.5-2.4 1.7-1.4 1.8-1.3 1.2.7-.4 1.2-.2 2.4.3 2.8.6.3.8 0 .5-.8s.2-1.7 1-2c1.7-.7 2.2-4.7.6-4.7-.5 0-1 .4-1 1M229 210c0 1.1.5 2 1 2 .6 0 1-.9 1-2s-.4-2-1-2c-.5 0-1 .9-1 2M232 211c0 .5.6 1 1.3 1 .8 0 .7.4-.3 1-1.3.8-1.3 1 .2 1 2.3 0 3.4-2 1.7-3.1-1.9-1.2-2.9-1.1-2.9.1M206.2 221.7c-.6.2-.9 1-.5 1.5.4.7-.2.9-1.6.5-1.8-.4-2.2-.2-1.9 1.5.4 2.9 2.8 3.5 3.5.9.3-1.2 1.3-2.1 2.2-2.2q1.5 0 .3-.6c-.6-.2-1-.9-.6-1.4.6-1 .5-1-1.4-.2M251.5 223c1.1.5 2.7.9 3.5.9.9 0 .8-.4-.5-.9-1.1-.5-2.7-.9-3.5-.9-.9 0-.8.4.5.9M206.5 229.3c-.4 1-.5 2.1-.1 2.4 1 1 1.8-.4 1.3-2.4-.4-1.7-.4-1.7-1.2 0M197 230c0 .5.5 1 1.1 1 .5 0 .7-.5.4-1-.3-.6-.8-1-1.1-1-.2 0-.4.4-.4 1M171.5 236.6c-2.8 1.5-6.3 3.6-8 4.8-1.6 1.1-3.4 2.1-4 2.2-.5.1-3.1 1.2-5.8 2.4-4.1 1.9-4.6 2.5-3.5 3.8 1.1 1.4 1 1.5-.6.8-1.4-.4-4.7.6-10.3 3.1-4.5 2.1-8.3 4.1-8.3 4.4 0 1.1 4.2 1.8 7.2 1.2 2.2-.4 2.8-1 2.5-2.4-.7-2.5 1.3-3.9 5.9-4.3 2.8-.2 4.2-.9 4.9-2.5 1.4-3.1 2.5-2.6 2.5 1.2 0 4.3.9 5.1 3.2 3s2.3-3.4-.1-6c-2-2.1-2-2.1.2-2.7 1.2-.3 2.4-.2 2.7.2s1.6.8 3 .9 1.8 0 .8-.3c-2.4-.7-2.3-2 .2-2.7 2.7-.7 4.5 1.7 2.6 3.5-.8.8-1.1 2-.7 2.7.6.8 1.5.6 3.4-1l2.7-2.1-2.7-2.1c-1.6-1.1-3-2.2-3.2-2.3-1.6-1.2 8.4-6.4 10.7-5.7.6.3 1.2-.2 1.2-1.1 0-2.1-.7-2-6.5 1M136 258c0 .5-.5 1-1.1 1-.5 0-.7-.5-.4-1 .3-.6.8-1 1.1-1 .2 0 .4.4.4 1"/><path d="M171 239.4c0 .2.7.6 1.5 1 .8.3 1.5.1 1.5-.4 0-.6-.7-1-1.5-1s-1.5.2-1.5.4M206.5 240.1c-.4.6-.5 1.2-.2 1.5.2.3.7-.2 1-1.1.7-1.7.1-2-.8-.4M259.8 239.7c.7.3 1.6.2 1.9-.1.4-.3-.2-.6-1.3-.5-1.1 0-1.4.3-.6.6M219.8 240.7c.7.3 1.6.2 1.9-.1.4-.3-.2-.6-1.3-.5-1.1 0-1.4.3-.6.6M236.2 241.2c.7 1.9 3.8 2.2 3.8.4 0-1-.9-1.6-2.1-1.6s-1.9.5-1.7 1.2M261.2 243c0 1.4.2 1.9.5 1.2.2-.6.2-1.8 0-2.5-.3-.6-.5-.1-.5 1.3M264.1 247.6c0 1.1.3 1.4.6.6.3-.7.2-1.6-.1-1.9-.3-.4-.6.2-.5 1.3M256.5 250.1c-.4.6-.5 1.3-.2 1.5.3.3.1 1.9-.3 3.5-.7 2.3-.5 3.1.6 3.6 2.7 1 3.9-1.3 2.4-4.4-.7-1.6-1.2-3.4-1.1-4.1.2-1.5-.5-1.6-1.4-.1M146 254c0 .5.5 1 1.1 1 .5 0 .7-.5.4-1-.3-.6-.8-1-1.1-1-.2 0-.4.4-.4 1M127.3 259.7c-1 .3-1 1-.2 2.4.5 1.1 1.4 1.7 2 1.4.5-.4.6-1.1.3-1.7-.5-.7.2-.9 2.2-.4 2.8.7 2.8.7.9-.8-2.1-1.6-3.1-1.8-5.2-.9M164 265.4c0 .8.4 1.7.8 2 .4.2.8-.4.8-1.5 0-1-.4-1.9-.8-1.9s-.8.6-.8 1.4M136 267.4c0 .9.7 1.6 1.6 1.6s1.4-.5 1.2-1.2c-.6-1.8-2.8-2.1-2.8-.4M136 272.8c0 .5 2 1.2 4.5 1.4 5.2.4 4.7-.7-.7-1.7-2.4-.5-3.8-.3-3.8.3M289 239.1c-1.2.8-.9.9 1.3.5 2.1-.5 2.7-.3 2.7 1 0 1.1.5 1.4 1.7 1 .9-.4 1.9-.3 2.2.2s2.6 1.9 5.1 3.1c4.5 2.1 4.5 2.1 1 1.6l-3.5-.5 3.5 1.3c2.5 1 3.6 2.2 4.2 4.5 1 3.7 2.1 4.3 1.6.9-.2-1.3.5-2.9 1.7-3.9 1.9-1.7 1.9-1.7-1.5-1.3-2.7.4-3 .3-1.5-.4 1.1-.5 1.5-1 .8-1-.6-.1-3.9-1.7-7.3-3.6-7.4-4.2-10-4.9-12-3.4"/><path d="M295 243.9c0 .5.6 1.6 1.3 2.3.6.7 1.2 2.5 1.2 4 0 1.6.5 2.7 1 2.5.9-.2 1-1.3.4-6.7-.3-2.3-3.9-4.2-3.9-2.1M302 251c0 .5.5 1 1 1 .6 0 1-.5 1-1 0-.6-.4-1-1-1-.5 0-1 .4-1 1M300.4 254.1c-.3.6.4 2.1 1.6 3.3 2 1.8 2.2 1.9 1.6.3-.3-1-.6-2.5-.6-3.3 0-1.7-1.6-1.9-2.6-.3M320.3 256.5c-.8 2.2.6 3.3 1.7 1.5 1.3-2 1.2-3 0-3-.6 0-1.3.7-1.7 1.5M312.8 272.7c.6.2 1.8.2 2.5 0 .6-.3.1-.5-1.3-.5s-1.9.2-1.2.5M209.1 266c0 .8.4 2.4.9 3.5.5 1.3.9 1.4.9.5 0-.8-.4-2.4-.9-3.5-.5-1.3-.9-1.4-.9-.5M171.1 290.2c-.2 3.2 3.2 8.8 5.2 8.8 1.7 0 1.7-.2-.7-2.1-1.4-1.1-3-3.5-3.5-5.2-.5-1.8-1-2.4-1-1.5M339.7 323.3c-.3.7-.3 2.5 0 4 .6 2.9 3.3 3.6 5.2 1.4.8-1.1.6-1.3-1.2-1.3-1.8.1-2.2-.4-1.9-2.7.3-2.8-1.2-3.8-2.1-1.4M339.4 336.5c-1.2 3 .5 6.5 3.1 6.5 1.3 0 2.7-.5 3-1 .4-.6-.5-1-1.9-1-2.4 0-3.3-1.7-2.7-5.3.2-1.3-.9-.7-1.5.8M327 340c0 .5.5 1 1 1 .6 0 1-.5 1-1 0-.6-.4-1-1-1-.5 0-1 .4-1 1M286.3 379.2c-.6.7-1.3 2.2-1.6 3.3-.6 1.7-.4 1.7 1.3-.4 1.1-1.3 2-2.7 2-3.2 0-1.2-.6-1.1-1.7.3M355 381.9c0 .6.5 1.3 1 1.6.6.3 1 1.6 1 2.8s.7 3.1 1.5 4.1c1.2 1.6 1.7 1.7 3 .6 2.1-1.8 1.9-2.9-.5-2.3-1.5.4-2 0-2-1.6 0-1.2-.5-3.1-1-4.2-1.1-2-3-2.6-3-1M268 384c0 .5.5 1 1.1 1 .5 0 .7-.5.4-1-.3-.6-.8-1-1.1-1-.2 0-.4.4-.4 1M332 384.7c0 1.2.5 2.5 1 2.8 1.3.8 1.3-1.5 0-3.5-.8-1.2-1-1.1-1 .7M262 386.1c0 .5.5.7 1 .4.6-.3 1-.8 1-1.1 0-.2-.4-.4-1-.4-.5 0-1 .5-1 1.1M349 387.1c-.6 1.1-.9 2.5-.7 3.2s1.1-.3 2.1-2.1c.9-1.7 1.2-3.2.7-3.2-.6 0-1.5.9-2.1 2.1M247.3 387.7c-1.5.5-1.7 2.3-.4 2.3.5 0 1.1-.7 1.5-1.5.3-.8.4-1.5.3-1.4-.1 0-.8.3-1.4.6M333 391c0 .5.7 1 1.5 1s1.5-.5 1.5-1c0-.6-.7-1-1.5-1s-1.5.4-1.5 1M254.7 392.1c.7.7 1.5 1 1.8.7s-.2-.9-1.2-1.2c-1.4-.6-1.5-.5-.6.5M214.6 401.5c-.3.8-.1 1.5.4 1.5s1.2 1.1 1.6 2.4c.3 1.4 1.2 2.7 2 3 2.4.9 1.6 2.3-1.8 3.1l-3.3.8 2.9.4c3.4.5 4.1-.1 4.9-4.3.5-2.8.4-3.1-1.3-2.7s-2 0-2-2.6c0-3.3-2.3-4.4-3.4-1.6M240.1 404.6c0 1.1.3 1.4.6.6.3-.7.2-1.6-.1-1.9-.3-.4-.6.2-.5 1.3M253.2 407c-.7 1.1-1.2 2.7-1.2 3.6 0 1.2-.6 1.5-2.5 1-2.7-.7-3.5.8-.9 1.8 1.9.7 6.4-.3 6.4-1.5 0-.5-.4-.9-1-.9s-.6-.9.1-2.6c1.2-3.3.7-4-.9-1.4M241 408.8c0 1.9 2.7 3.8 3.8 2.7.3-.3 0-.5-.6-.5-.7 0-1.2-.6-1.2-1.4s-.4-1.8-1-2.1c-.5-.3-1 .3-1 1.3M236.6 411.9c-1.1 1.2-1.6 2.4-1.2 2.8.9.9 3.9-2.2 3.4-3.7-.2-.7-1-.4-2.2.9M66 396.3c0 .8.5 1.7 1.2 1.9.9.3.9 1.4-.3 4.3-1.5 4-3.9 5.9-3.9 3.1 0-1-.8-1.6-2.1-1.6-3 0-2.1 4 1.3 6 3.9 2.1 5.7.6 8.5-7 1.2-3.5 2.1-6.5 2-6.7-.2-.1-1.8-.6-3.5-.9-2.5-.5-3.2-.3-3.2.9M75 404.1c-.9 4.3-1 6.7-.3 7.8 1.5 2.4 5.8 3.6 9 2.5 2.3-.8 3-2 4.4-7.1.9-3.5 1.4-6.5 1.1-6.8-1.6-1.6-3.1.1-4.2 4.5-1.3 5.5-2.9 7.4-5.5 6.4-1.7-.7-1.7-3.8.2-11.2.4-1.7.1-2.2-1.5-2.2s-2.2 1.1-3.2 6.1M152.1 401.7c-3 .4-3.3.7-2.8 3.2.3 1.6.9 5.2 1.3 8.1l.7 5.2 4.5-.6c2.5-.3 5.1-.6 5.8-.6.8 0 1.4-.7 1.4-1.5 0-1.1-1.2-1.5-4.5-1.5s-4.5-.4-4.5-1.5c0-.8.9-1.5 1.9-1.5 3.1 0 5.1-1.1 5.1-2.7 0-1.2-.8-1.4-3.4-.9-2.4.5-3.5.3-3.9-.8-.4-1 .6-1.5 3.5-2 2.5-.4 3.8-1.1 3.5-1.9-.4-1.3-3.3-1.7-8.6-1M94 403.4c-2.1 2.7-.8 6 3.3 7.9 2.1 1 3.5 2.2 3.2 2.7-1 1.5-4.5 1.2-5.1-.5-.7-1.7-4.4-2.1-4.4-.5 0 2.2 4.1 5 7.4 5 6.8 0 7.6-6.1 1.2-9.6-2.2-1.3-3.4-2.4-2.7-2.8 1.4-.9 5.1.2 5.1 1.5 0 .5.7.9 1.5.9 2 0 1.9-2.4-.1-4.4-1.9-2-7.8-2.1-9.4-.2M108 404v1.7c0 .5.5.9 1 .9.6.1 1.5.2 2 .3.6 0 1 3 1 6.5 0 5.5.2 6.4 1.7 6.2 1-.2 1.8-1.1 1.9-2.2 0-1 .1-3.8.2-6.2.2-3.8.5-4.2 2.7-4.2 4.5 0 2.8-2.7-2.1-3.4-6.5-.8-8.4-.8-8.4.4M134.5 405.5c-2.9 2.8-3.2 6.3-.9 10.6 1.4 2.8 1.9 3 6.1 2.7 3.4-.2 4.9-.9 6-2.5 1.4-2 1.4-2.3-.1-2.9-1-.4-2.2 0-3 1.1-.7 1-2.2 1.6-3.7 1.3-2-.2-2.5-.9-2.7-4-.4-4.7 2.2-6.6 5.7-4.1 3.2 2.2 5.2.2 2.6-2.7-2.5-2.8-7-2.6-10 .5M124 412c0 7.4.2 8 2 8 1.9 0 2.1-.6 1.9-8-.1-7.1-.4-8-2-8-1.7 0-1.9.9-1.9 8M398 399.3c-2.8 1.4-3.8 5.1-2 7.3.7.8 3 1.4 5.1 1.4 2.7 0 3.9.4 3.9 1.4 0 1.9-3 2.5-5.2 1.2-2.5-1.5-4.6.7-2.8 2.9 2.6 3.1 10.6 1.1 11.6-3 .8-3.4-1-5.3-5.3-5.7-2-.2-3.9-.9-4.1-1.7-.4-1.1.3-1.2 3.1-.7 4.2.8 6-1 3.2-3.1-2.3-1.6-4.3-1.6-7.5 0M287.5 400.2c-.6 1.9-3.5 13.5-3.5 14.2 0 .3.9.6 1.9.6 1.3 0 2.1-.8 2.3-2.3s.9-2.1 2.3-2c3.7.5 6.6-.7 7.5-3.2 1.3-3.5.4-5.1-4.1-6.9-4.8-1.9-5.8-2-6.4-.4m6.4 4.1c1.3 1.6.5 2.7-2.1 2.7-1.1 0-1.8-.7-1.8-2 0-2.3 2.2-2.7 3.9-.7M383.3 402c-5.2 2.1-3.1 8.6 3 9.2 3.7.4 4.6 2.3 1.5 3.1-1.3.4-2.4.2-2.6-.3-.6-1.6-4.2-1.2-4.2.5 0 4.4 10.4 4.3 12.1-.2 1.1-3-1.1-6.3-4.2-6.3-2.5 0-4.9-1.1-4.9-2.2 0-.6 1.6-.7 4-.3 3.2.5 4 .4 4-.9 0-1.6-3-3.6-5.2-3.5-.7 0-2.3.4-3.5.9M300.7 405.1c-2.1 11.8-2 12.9.2 12.9 1.6 0 2.1-.6 2.1-2.5 0-3.5 2.6-3.2 3.9.5q1.05 3 3 3c2.4 0 2.5-.4 1-3.2-.8-1.4-.8-2.7-.1-4.2 3-6.2 1.7-8.6-5-9.3-4.5-.5-4.5-.5-5.1 2.8m8.1 2.6c.2.8-.6 1.3-2.2 1.3-1.7 0-2.6-.5-2.6-1.6 0-1.9 4.1-1.6 4.8.3M367.7 403.7c-2.7.4-2.7.5-2.1 6.1 1 10.3 1.1 10.5 4.6 9.8 1.7-.3 4.3-.6 5.9-.6 1.9 0 2.9-.5 2.9-1.5 0-1.1-1.2-1.5-4.5-1.5s-4.5-.4-4.5-1.5c0-1 1.1-1.5 3.5-1.5 2.9 0 3.5-.4 3.5-2 0-1.8-.4-2-3.5-1.4-2.8.5-3.5.3-3.5-1 0-.9.8-1.6 1.9-1.6 3 0 5.1-1.1 5.1-2.6 0-1.4-3-1.6-9.3-.7M316.6 406.2c-.9 1.2-1.6 3.8-1.6 5.8 0 5.4 2.3 8 7 8 5.1 0 8-3 8-8.2 0-5.1-2.7-7.8-7.9-7.8-3 0-4.4.6-5.5 2.2m8.2 1.7c1.9 1.1 1.1 7.1-1 8.5-3.8 2.3-7.2-2.9-4.8-7.3 1.1-2.2 3.5-2.7 5.8-1.2M335.7 406c-2.2 1.7-2.7 3-2.7 6.4 0 6.4 4.5 9.6 10.7 7.5 2.9-.9 3.3-1.5 3.3-4.5 0-3.3-.1-3.4-4-3.4-2.9 0-4 .4-4 1.5 0 .9.9 1.5 2.5 1.5 1.4 0 2.5.4 2.5 1 0 .5-1.4 1-3 1-5.7 0-6.7-8-1.1-8.8 1.2-.2 2.9.2 3.7.9 2.1 1.7 3.8-.2 2.2-2.4-2.2-2.8-6.9-3.2-10.1-.7M350.9 404.4c-.2.2-.3 3.8-.1 8 .3 6.5.6 7.6 2.1 7.6 1.4 0 1.7-.6 1.3-2.5-.6-3.3 1.6-3.3 4.3.1 1.2 1.5 2.8 2.5 3.9 2.3 1.7-.4 1.6-.6-.5-3.2-1.3-1.8-1.8-3.2-1.2-3.5 2.3-1.5 2.4-5.1.4-7.1-1.9-1.9-8.8-3-10.2-1.7m7.9 4.8c-.7 2-4.8 2.3-4.8.4 0-1.1.9-1.6 2.6-1.6 1.6 0 2.4.5 2.2 1.2M205.5 426.7c-2.2 3.6-4.1 7-4.3 7.5-.7 1.7 3 .7 4.6-1.2 2.1-2.5 6-1.7 6.4 1.3.3 2.5 3.8 3.7 3.8 1.4 0-.8-.7-4.7-1.6-8.6-2.1-9.1-3.6-9.2-8.9-.4M243.1 420.8l-4.4.3.7 5.2c.3 2.9.6 6.5.6 8.1 0 2.8.1 2.9 4.7 2.3 7.7-.8 11.5-7.1 7.7-12.5-2.1-3-4.2-3.8-9.3-3.4m6.5 5.9c.9 3.4-.7 5.8-3.7 5.8-2.1 0-2.4-.5-2.7-4.3-.3-4.1-.2-4.2 2.7-4.2 2.5 0 3.2.5 3.7 2.7M220 429c0 7.3.2 8 2 8 1.7 0 2-.7 2-4.7v-4.7l3.3 4.7c2.2 3.3 3.9 4.7 5.5 4.7 2.2 0 2.3-.3 2.1-7.3-.2-8.2-.4-8.8-2.4-8-1 .3-1.5 1.9-1.5 4.6v4.2l-4.3-4.8c-2.4-2.6-4.9-4.7-5.5-4.7-.8 0-1.2 2.6-1.2 8M40.2 13.4c-3.7 1.3-3.3 2.6.8 2.6 2.5 0 5-1.6 5-3.2 0-1.1-1.8-.9-5.8.6M264.8 91.7c.7.3 1.6.2 1.9-.1.4-.3-.2-.6-1.3-.5-1.1 0-1.4.3-.6.6M378 325.9c0 .5.7 1.1 1.4 1.4.8.3 1.8 2.2 2.2 4.1.3 2 1.1 3.6 1.6 3.6 1.1 0 .6 6-.7 9.2-.6 1.4-.2 1.8 1.7 1.8 1.3 0 2.9-.5 3.5-1.1.8-.8 1.4-.5 2.2 1 .7 1.2 1.8 2.1 2.5 2.1 1.8 0 4.1-2.8 3.1-3.8-.4-.4-1-.1-1.2.5-.7 1.8-2.3 1.6-2.3-.3 0-1.3-.7-1.5-4-.9-3.9.7-5.5-.5-2.9-2.1.7-.4.9-2.2.6-4.5-.5-4.1.7-5.9 2.6-4 .6.6 2.1 1.1 3.3 1.1 1.8 0 2.3.6 2.6 3.2.3 3 .6 3.3 4.1 3.6 3.3.3 3.8.6 3.4 2.2-.6 2.2 1.7 5.9 2.9 4.7.5-.4.2-1.2-.5-1.6-.7-.5-1-1.4-.7-2 1.6-2.5-.4-5-4.2-5.3-2.4-.2-3.6-.8-3.4-1.6.5-2.5-1.8-5.3-3.9-4.7-1.1.4-1.9.2-1.9-.4s-1.8-1.1-4-1.1c-3.2 0-4-.4-4-1.8 0-.9-.9-2.3-2-3s-2-.8-2-.3M73.4 330.5c-.7 1.9-1.4 3.9-1.4 4.5 0 1.3-1.7 1.3-2.5 0-1.2-2-3.3-.9-4.5 2.2l-1.1 3.3-1.9-2.3c-2.8-3.4-5.4-2.5-5.8 1.8-.2 1.9-1.1 4.3-1.9 5.3-2.2 2.4-.8 3.4 1.7 1.2 1.2-1.1 2-3.1 2-5.2 0-4 .7-4.1 3.6-.8 2 2.4 2.3 2.4 3.8 1 .9-.9 1.6-2.5 1.6-3.6 0-2.2 1.1-2.4 2.9-.7 1 1.1 1.6.8 3.1-1.2 1.1-1.4 2-3.3 2-4.3s.7-2 1.5-2.3c2-.8 1.9-2.4-.1-2.4-.8 0-2.2 1.6-3 3.5M365.5 338c-.3.5-.1 1 .4 1 .6 0 1.1-.5 1.1-1 0-.6-.2-1-.4-1-.3 0-.8.4-1.1 1"/><path d="M397.8 345.6q.45 2.55 1.5 1.5c1.1-1.1.3-4.1-1.1-4.1-.5 0-.7 1.2-.4 2.6M406.8 345.7c.6.2 1.8.2 2.5 0 .6-.3.1-.5-1.3-.5s-1.9.2-1.2.5M410.8 350c.3 1.8 1 3 1.9 3 1.2 0 1.3-.3.4-1.4-.6-.8-1-1.9-.9-2.6.2-.7-.2-1.4-.8-1.7-.7-.2-.9.8-.6 2.7M64 349.8c0 3.1-1.9 3.7-4.4 1.3l-2.3-2.2-1.7 2.5c-2 3.1-2 4.6-.1 4.6.8 0 1.5-.7 1.5-1.5s.4-1.5.9-1.5 1.4.7 2.1 1.5c2.1 2.5 3.7 1.7 4.5-2.1.3-2 .4-3.9.1-4.2s-.6.4-.6 1.6M398.3 351c.2.9 1.8 1.6 3.8 1.8 1.8.2 3.7.9 4.1 1.5s1 .8 1.4.4c1.3-1.2-2.7-3.4-5.3-2.9-1.5.3-2.9-.1-3.5-.9-.8-1.2-.9-1.1-.5.1M387.1 355.6c0 1.1.3 1.4.6.6.3-.7.2-1.6-.1-1.9-.3-.4-.6.2-.5 1.3M369 355.9c0 2.5 1.5 4.1 3.7 4.1 3 0 2.1-2-1-2.1h-2.2l2.3-.9c2.9-1.2 2.8-2-.3-2-1.4 0-2.5.4-2.5.9M70.6 356.8c-.6 1.1 1.9 4.2 3.4 4.2 2 0 4-1.3 4-2.6 0-1.2-.4-1.2-2-.2-1.6 1.1-2.2 1-3.3-.6-.9-1.2-1.6-1.5-2.1-.8M398 358.7c0 2.4 1.6 4.8 2.3 3.6.8-1.3-.3-5.3-1.4-5.3-.5 0-.9.8-.9 1.7M387 360.1c0 1.6 1.9 1.8 4.5.5l2.7-1.4-3.6.1c-2 .1-3.6.4-3.6.8M62.6 361.5c-1.1.8-1.7 1.8-1.3 2.1 1 1.1 3.7-.4 3.7-2.1 0-1.8 0-1.8-2.4 0M107.3 368.8c-4 3.1-5.6 11.3-3.2 16.5 1 2.1 1.5 2.3 5.5 1.7 4.2-.7 4.4-.6 6.9 3.2 1.4 2.1 3.2 3.8 4 3.8 1.7 0 6.1-5.7 6.7-8.5.5-2.9 3.2-2.9 4.8 0 1.3 2.4 4 3.5 4 1.5 0-.6.7-1 1.5-1s1.5.7 1.5 1.5c0 2.2 1.8 1.8 2.5-.6.5-1.4.2-2.5-.6-3-1-.6-1-.9-.2-.9.6 0 1.5.5 1.8 1 .4.6 1.1.8 1.6.5.5-.4 1.2.1 1.5 1 .5 1.1 1.4 1.5 3 1.1 1.2-.3 2.6-.1 3 .5.5.9 1 .8 1.8-.2 1.2-1.4 5.1-3.9 6.2-3.9.4 0 .1.7-.6 1.5-.6.8-1 2-.8 2.6s1.7-.6 3.3-2.6c2.7-3.6 2.7-3.8.6-3.2-1.6.4-2.2.1-2-1.1.4-4.3-.2-6.2-1.8-6.2-1.5-.1-1.4-.4.6-2.1 1.3-1.1 2.1-2.2 1.8-2.6-.4-.3-1.3 0-2.2.7-.8.7-2.2 1-3 .6-.8-.3-1.5-.1-1.5.4 0 .6-2.1 1-4.6 1-4.1 0-4.5-.2-3.4-1.5 1.9-2.3.3-3.1-2-1-1.6 1.4-2.3 1.6-3.2.7-2.9-2.9-7.6-1.1-11.3 4.3-1.3 1.9-1.4 1.9-5.4-1.3-2.2-1.7-4.6-3.2-5.4-3.2s-3.1-.7-5-1.5c-4.4-1.8-3.7-1.8-6.4.3m6.3 2.7c1 .8 3.1 1.5 4.5 1.5 5.4 0 6.2 4.7 1.3 7.4-1 .6-2.2 1.5-2.5 2-.4.5-2.9 1.1-5.7 1.4-4.4.4-5.2.2-6.1-1.7-1.7-3.1-.3-4.6 2.1-2.4 3.3 3 9.8 1.2 9.8-2.7 0-2.3-8-4.6-9.2-2.7-.5.8-.8.4-.8-1 0-3.3 3.4-4.2 6.6-1.8m25.3-.6c1 .6 1 1 .1 1.6-1.9 1.2-3.1 5.4-2 7.4.7 1.4.5 2.3-.9 3.5-2.2 2-3.1 2-3.1.2 0-.7-.7-1.9-1.5-2.6-1.3-1.1-1.9-.8-4 1.4-1.4 1.5-2.5 3.3-2.5 4.1 0 1.4-3.8 5.5-5 5.5-.3 0-1.4-1.6-2.3-3.5L116 385l2.8-1.2c1.5-.7 3.8-2.4 5.1-3.7 1.3-1.4 3.3-2.6 4.4-2.6 1.1-.1 2.6-1 3.4-2.1 4-5.6 4.7-6 7.2-4.5m17.9 4.4c2 1.3 1.4 5.4-1 7.1-3.1 2.2-3.9 2-3.2-.8.8-3.3-2.5-5-8.7-4.4-3.5.4-4.9.2-4.9-.8 0-.7.6-1.4 1.3-1.7 2-.7 15.1-.2 16.5.6M389.2 369c0 1.4.2 1.9.5 1.2.2-.6.2-1.8 0-2.5-.3-.6-.5-.1-.5 1.3M390 373c0 1.7 1.9 4 3.2 4 .4 0 .8-.7.8-1.6 0-.8-.4-1.3-.9-.9-.6.3-1.4-.3-2-1.2-.8-1.5-1-1.5-1.1-.3M171.6 380.6c-1.1 2.8-.6 3.8.9 1.8.8-1 1.5-2.2 1.5-2.7 0-1.3-1.8-.7-2.4.9M167.5 388.3c-1.6 1.3-1.6 1.4-.1 2 1 .4 1.9.1 2.3-.9.8-2.1-.1-2.6-2.2-1.1"/><path d="M107.2 390.2c.6 1.8 2.8 2.1 2.8.4 0-.9-.7-1.6-1.6-1.6s-1.4.5-1.2 1.2M154.1 390.7c-.1 1.6.5 2.3 1.7 2.3 2.6 0 4.7-1.6 3.3-2.5-.7-.4-1.8-.2-2.6.5-1 .9-1.4.7-1.8-.7s-.5-1.3-.6.4"/></svg>